{"glyphs":{"0":{"ha":756,"x_min":92,"x_max":710,"o":"m 710 488 q 628 124 710 253 q 399 -4 547 -4 q 174 126 257 -4 q 92 488 92 256 q 174 850 92 719 q 401 981 256 981 q 628 852 547 981 q 710 488 710 724 m 664 489 q 595 828 664 713 q 399 944 526 944 q 208 822 279 944 q 136 486 136 700 q 208 153 136 274 q 401 32 279 32 q 596 148 528 32 q 664 489 664 264 z "},"1":{"ha":756,"x_min":228,"x_max":435,"o":"m 435 22 l 392 22 l 392 925 l 228 925 l 247 961 l 435 961 l 435 22 z "},"2":{"ha":756,"x_min":92,"x_max":668,"o":"m 668 726 q 590 911 668 842 q 383 981 513 981 q 170 905 249 981 q 92 697 92 829 l 92 710 l 136 710 l 136 692 q 201 877 136 810 q 374 944 265 944 q 549 882 482 944 q 615 721 615 819 q 574 575 615 651 q 457 417 540 513 q 279 219 406 357 l 100 22 l 664 22 l 664 56 l 181 56 l 433 326 q 556 460 536 436 q 640 588 611 525 q 668 726 668 651 z "},"3":{"ha":756,"x_min":92,"x_max":674,"o":"m 674 264 q 597 69 674 142 q 381 -4 519 -4 q 181 56 256 -4 q 92 228 107 115 l 143 228 q 381 32 168 32 q 560 95 497 32 q 624 264 624 158 q 560 435 624 372 q 385 499 497 499 l 363 499 l 363 538 l 390 538 q 551 592 494 538 q 608 738 608 646 q 550 889 608 832 q 392 946 492 946 q 254 904 308 946 q 185 786 200 863 l 133 786 q 219 928 150 876 q 392 981 288 981 q 583 917 510 981 q 657 746 657 853 q 608 611 657 664 q 433 517 554 553 q 618 413 563 475 q 674 264 674 351 z "},"4":{"ha":756,"x_min":85,"x_max":658,"o":"m 658 274 l 557 274 l 557 22 l 511 22 l 511 274 l 85 274 l 557 947 l 557 307 l 658 307 l 658 274 m 514 847 l 133 307 l 511 307 l 514 847 z "},"5":{"ha":756,"x_min":85,"x_max":676,"o":"m 676 319 q 590 84 676 174 q 363 -6 503 -6 q 85 156 175 -6 l 119 182 q 367 32 208 32 q 556 108 485 32 q 628 314 628 183 q 556 506 628 435 q 360 576 483 576 q 144 504 225 576 l 156 504 l 271 961 l 632 961 l 632 929 l 297 929 l 206 561 q 310 599 271 588 q 385 610 350 610 q 595 530 514 610 q 676 319 676 450 z "},"6":{"ha":756,"x_min":106,"x_max":690,"o":"m 690 290 q 605 77 690 160 q 386 -6 519 -6 q 181 72 257 -6 q 106 276 106 149 q 137 432 106 354 q 296 686 168 510 l 515 993 l 550 971 l 247 560 l 278 526 q 424 574 350 574 q 615 495 539 574 q 690 290 690 417 m 642 294 q 576 472 642 401 q 400 542 510 542 q 222 470 289 542 q 154 282 154 399 q 222 98 154 167 q 399 29 289 29 q 574 102 507 29 q 642 294 642 175 z "},"7":{"ha":756,"x_min":147,"x_max":700,"o":"m 700 961 l 225 -1 l 181 22 l 640 929 l 147 929 l 147 961 l 700 961 z "},"8":{"ha":756,"x_min":107,"x_max":693,"o":"m 693 269 q 616 69 693 142 q 401 -4 539 -4 q 185 69 263 -4 q 107 267 107 143 q 163 428 107 365 q 363 532 225 497 q 192 628 244 568 q 144 760 144 681 q 215 919 144 857 q 401 981 285 981 q 588 917 519 981 q 657 749 657 854 q 610 624 657 675 q 447 531 564 574 q 638 428 576 497 q 693 269 693 364 m 610 746 q 553 892 610 838 q 401 946 496 946 q 251 892 307 946 q 194 746 194 839 q 249 603 194 657 q 403 549 304 549 q 555 602 500 549 q 610 746 610 656 m 644 271 q 579 447 644 382 q 400 513 514 513 q 222 448 286 513 q 157 271 157 383 q 220 97 157 161 q 400 32 283 32 q 580 97 515 32 q 644 271 644 161 z "},"9":{"ha":756,"x_min":106,"x_max":692,"o":"m 692 699 q 639 501 692 604 q 500 289 600 425 l 275 -17 l 240 4 l 549 415 l 518 449 q 374 403 449 403 q 181 480 257 403 q 106 685 106 557 q 191 898 106 815 q 410 981 276 981 q 615 904 539 981 q 692 699 692 828 m 643 693 q 576 878 643 810 q 399 947 508 947 q 223 874 290 947 q 156 682 156 801 q 221 503 156 574 q 396 433 286 433 q 575 506 507 433 q 643 693 643 578 z "}," ":{"ha":356,"x_min":0,"x_max":0,"o":""},"!":{"ha":386,"x_min":168,"x_max":263,"o":"m 235 228 l 196 228 l 196 993 l 235 993 l 235 228 m 263 43 q 249 10 263 24 q 215 -4 235 -4 q 182 10 196 -4 q 168 43 168 24 q 182 76 168 63 q 215 90 196 90 q 249 77 236 90 q 263 43 263 64 z "},"\"":{"ha":315,"x_min":69,"x_max":290,"o":"m 69 972 l 117 972 l 117 597 l 69 597 l 69 972 m 243 972 l 290 972 l 290 597 l 243 597 l 243 972 z "},"#":{"ha":1024,"x_min":108,"x_max":960,"o":"m 960 632 l 950 599 l 725 596 l 650 385 l 892 385 l 882 351 l 639 349 l 518 10 l 469 10 l 594 354 l 388 349 l 265 10 l 218 10 l 339 351 l 108 351 l 118 385 l 347 388 l 428 599 l 175 599 l 185 632 l 436 635 l 561 976 l 610 976 l 488 632 l 688 635 l 813 976 l 860 976 l 739 632 l 960 632 m 678 600 l 475 596 l 401 385 l 600 388 l 678 600 z "},"$":{"ha":756,"x_min":138,"x_max":653,"o":"m 653 285 q 590 109 653 179 q 408 21 526 39 l 408 -92 l 399 -92 l 399 26 q 239 63 301 26 q 138 176 176 100 l 174 194 q 254 96 200 131 q 399 53 308 61 l 399 521 q 228 632 276 581 q 174 767 174 689 q 231 903 174 849 q 399 974 289 958 l 399 1039 l 408 1039 l 408 975 q 524 944 479 967 q 597 882 568 922 l 567 864 q 503 919 543 899 q 408 940 464 940 l 408 560 q 594 440 543 494 q 653 285 653 379 m 399 564 l 399 942 q 267 882 314 931 q 219 769 219 833 q 260 658 219 706 q 399 564 300 611 m 611 278 q 566 410 611 356 q 408 517 521 464 l 408 54 q 560 125 508 67 q 611 278 611 183 z "},"%":{"ha":971,"x_min":65,"x_max":951,"o":"m 951 226 q 904 57 951 118 q 774 -4 857 -4 q 644 56 690 -4 q 597 226 597 117 q 644 397 597 336 q 774 458 692 458 q 905 398 858 458 q 951 226 951 338 m 790 981 l 243 -4 l 221 -4 l 768 981 l 790 981 m 419 749 q 372 578 419 639 q 242 517 325 517 q 112 577 158 517 q 65 749 65 638 q 113 919 65 858 q 242 981 160 981 q 373 920 326 981 q 419 749 419 860 m 383 750 q 347 910 383 857 q 242 963 311 963 q 139 908 176 963 q 101 750 101 853 q 138 591 101 646 q 242 536 175 536 q 345 592 307 536 q 383 750 383 647 m 915 228 q 879 388 915 335 q 774 440 843 440 q 671 385 708 440 q 633 228 633 331 q 670 69 633 124 q 774 14 707 14 q 877 69 839 14 q 915 228 915 125 z "},"&":{"ha":844,"x_min":81,"x_max":828,"o":"m 828 22 l 786 22 l 654 181 q 502 45 574 86 q 350 4 431 4 q 156 76 231 4 q 81 258 81 149 q 142 417 81 343 q 338 575 197 483 l 285 643 q 233 719 249 689 q 211 811 211 763 q 265 922 211 878 q 406 967 319 967 q 531 921 482 967 q 579 804 579 875 q 533 685 579 739 q 386 568 493 638 l 663 226 q 788 393 739 317 l 808 382 q 676 200 753 293 l 828 22 m 544 806 q 503 903 544 864 q 400 942 461 942 q 292 904 333 942 q 250 806 250 867 q 300 676 250 746 l 368 585 l 431 628 q 544 806 544 707 m 638 203 l 351 551 l 290 507 q 169 403 203 444 q 122 263 122 343 q 190 99 122 167 q 354 32 257 32 q 487 72 419 32 q 638 203 554 113 z "},"'":{"ha":142,"x_min":69,"x_max":117,"o":"m 69 972 l 117 972 l 117 597 l 69 597 l 69 972 z "},"(":{"ha":335,"x_min":147,"x_max":318,"o":"m 318 -258 l 294 -272 q 147 376 147 14 q 294 1008 147 731 l 318 996 q 181 374 181 701 q 214 37 181 193 q 318 -258 247 -119 z "},")":{"ha":335,"x_min":61,"x_max":232,"o":"m 232 376 q 85 -272 232 14 l 61 -258 q 200 374 200 15 q 166 692 200 539 q 61 996 132 846 l 85 1008 q 232 376 232 731 z "},"*":{"ha":535,"x_min":92,"x_max":486,"o":"m 486 856 l 324 765 l 485 679 l 464 643 l 304 743 l 310 551 l 268 551 l 276 742 l 113 643 l 92 679 l 258 765 l 92 856 l 113 892 l 275 790 l 268 985 l 311 985 l 306 790 l 467 890 l 486 856 z "},"+":{"ha":1113,"x_min":176,"x_max":981,"o":"m 981 397 l 596 397 l 596 4 l 563 4 l 563 397 l 176 397 l 176 431 l 563 431 l 563 824 l 596 824 l 596 431 l 981 431 l 981 397 z "},",":{"ha":356,"x_min":111,"x_max":288,"o":"m 288 119 l 129 -187 l 111 -179 l 232 143 l 288 119 z "},"-":{"ha":438,"x_min":115,"x_max":367,"o":"m 367 278 l 115 278 l 115 321 l 367 321 l 367 278 z "},".":{"ha":356,"x_min":153,"x_max":247,"o":"m 247 57 q 233 24 247 38 q 200 10 219 10 q 167 24 181 10 q 153 57 153 38 q 167 90 153 76 q 200 104 181 104 q 234 91 221 104 q 247 57 247 78 z "},"/":{"ha":515,"x_min":33,"x_max":526,"o":"m 526 993 l 58 -107 l 33 -107 l 501 993 l 526 993 z "},":":{"ha":386,"x_min":168,"x_max":263,"o":"m 263 515 q 249 482 263 496 q 215 468 235 468 q 182 482 196 468 q 168 515 168 496 q 182 549 168 535 q 215 563 196 563 q 249 549 236 563 q 263 515 263 536 m 263 57 q 249 24 263 38 q 215 10 235 10 q 182 24 196 10 q 168 57 168 38 q 182 90 168 76 q 215 104 196 104 q 249 91 236 104 q 263 57 263 78 z "},";":{"ha":386,"x_min":117,"x_max":321,"o":"m 321 515 q 307 482 321 496 q 274 468 293 468 q 240 482 254 468 q 226 515 226 496 q 240 549 226 535 q 274 563 254 563 q 308 549 294 563 q 321 515 321 536 m 293 119 l 135 -187 l 117 -179 l 238 143 l 293 119 z "},"<":{"ha":1113,"x_min":183,"x_max":974,"o":"m 974 81 l 183 403 l 183 425 l 974 747 l 974 710 l 242 414 l 974 118 l 974 81 z "},"=":{"ha":1113,"x_min":176,"x_max":981,"o":"m 981 518 l 176 518 l 176 551 l 981 551 l 981 518 m 981 278 l 176 278 l 176 311 l 981 311 l 981 278 z "},">":{"ha":1113,"x_min":183,"x_max":974,"o":"m 974 403 l 183 81 l 183 118 l 915 415 l 183 710 l 183 747 l 974 425 l 974 403 z "},"?":{"ha":669,"x_min":139,"x_max":567,"o":"m 567 790 q 515 647 567 703 q 375 544 482 611 q 260 463 283 486 q 218 361 218 421 q 255 266 218 301 q 354 231 292 231 q 463 269 424 231 q 503 374 503 307 l 503 364 l 533 364 l 533 369 q 344 203 533 203 q 224 247 271 203 q 176 363 176 292 q 226 483 176 432 q 353 575 257 515 q 481 668 449 635 q 526 785 526 717 q 482 906 526 860 q 358 951 438 951 q 223 899 271 951 q 175 747 175 847 l 175 765 l 139 765 q 199 932 139 871 q 363 993 258 993 q 511 939 456 993 q 567 790 567 885 m 389 43 q 375 10 389 24 q 342 -4 361 -4 q 308 10 322 -4 q 294 43 294 24 q 308 76 294 63 q 342 90 322 90 q 376 77 363 90 q 389 43 389 64 z "},"@":{"ha":1344,"x_min":90,"x_max":1299,"o":"m 1299 528 q 1257 322 1299 414 q 1136 167 1215 231 q 935 94 1044 94 q 813 185 813 94 l 815 215 l 800 215 q 610 94 735 94 q 406 307 406 94 q 494 564 406 460 q 710 668 583 668 q 816 638 774 668 q 883 539 858 608 l 931 640 l 968 640 l 878 276 q 864 200 864 221 q 951 129 864 129 q 1094 183 1021 129 q 1205 325 1161 232 q 1249 521 1249 418 q 1112 824 1249 708 q 749 940 975 940 q 357 807 518 940 q 144 346 144 633 q 296 -14 144 121 q 704 -149 447 -149 q 920 -117 813 -149 q 1122 -21 1028 -85 l 1135 -40 q 707 -181 940 -181 q 292 -58 454 -181 q 90 354 90 97 q 222 736 90 574 q 756 975 421 975 q 960 945 863 975 q 1125 864 1058 915 q 1299 528 1299 726 m 878 489 q 711 635 847 635 q 533 539 607 635 q 460 303 460 443 q 500 174 460 219 q 615 128 540 128 q 753 178 693 128 q 835 314 814 229 l 878 489 z "},"A":{"ha":785,"x_min":21,"x_max":808,"o":"m 808 22 l 758 22 l 632 358 l 196 358 l 64 22 l 21 22 l 424 974 l 808 22 m 621 392 l 419 907 l 208 392 l 621 392 z "},"B":{"ha":724,"x_min":146,"x_max":672,"o":"m 672 292 q 578 78 672 151 q 457 29 529 40 q 297 22 411 22 l 146 22 l 146 971 l 296 971 q 399 969 381 971 q 531 926 479 963 q 624 735 624 857 q 589 592 624 657 q 489 504 550 519 q 622 435 572 492 q 672 292 672 378 m 575 728 q 519 892 575 847 q 326 936 463 936 l 192 936 l 192 529 l 326 529 q 513 569 457 529 q 575 728 575 615 m 619 274 q 595 390 619 340 q 529 465 571 439 q 458 490 499 483 q 364 496 418 496 l 192 496 l 192 56 l 347 56 q 465 63 422 56 q 541 96 507 69 q 597 171 575 122 q 619 274 619 219 z "},"C":{"ha":949,"x_min":99,"x_max":900,"o":"m 900 900 l 899 856 q 607 958 765 958 q 277 830 403 958 q 151 496 151 701 q 277 162 151 289 q 594 35 403 35 q 893 128 757 35 l 892 79 q 749 17 824 38 q 599 -4 674 -4 q 240 135 382 -4 q 99 496 99 274 q 242 853 99 713 q 599 993 385 993 q 900 900 776 993 z "},"D":{"ha":924,"x_min":146,"x_max":868,"o":"m 868 496 q 708 110 868 231 q 531 35 635 53 q 319 22 460 22 l 146 22 l 146 971 l 278 971 q 500 964 440 971 q 675 908 606 951 q 817 745 767 853 q 868 496 868 638 m 817 497 q 789 687 817 603 q 710 829 761 771 q 546 924 644 901 q 321 940 474 940 l 192 940 l 192 56 l 347 56 q 522 64 469 56 q 657 117 601 76 q 774 269 732 171 q 817 497 817 368 z "},"E":{"ha":668,"x_min":146,"x_max":593,"o":"m 593 22 l 146 22 l 146 971 l 593 971 l 593 931 l 192 931 l 192 575 l 593 575 l 593 535 l 192 535 l 192 63 l 593 63 l 593 22 z "},"F":{"ha":651,"x_min":146,"x_max":593,"o":"m 593 931 l 192 931 l 192 575 l 578 575 l 578 535 l 192 535 l 192 22 l 146 22 l 146 971 l 593 971 l 593 931 z "},"G":{"ha":1090,"x_min":99,"x_max":1046,"o":"m 1046 468 l 1046 476 q 922 124 1046 251 q 582 -4 799 -4 q 232 133 365 -4 q 99 494 99 271 q 233 852 99 711 q 578 993 367 993 q 817 947 717 993 q 974 806 917 900 l 942 776 q 590 956 813 956 q 274 824 396 956 q 151 485 151 692 q 276 163 151 292 q 590 35 400 35 q 880 144 768 35 q 992 435 992 253 l 649 435 l 649 468 l 1046 468 z "},"H":{"ha":924,"x_min":146,"x_max":822,"o":"m 822 22 l 776 22 l 776 535 l 192 535 l 192 22 l 146 22 l 146 971 l 192 971 l 192 568 l 776 568 l 776 971 l 822 971 l 822 22 z "},"I":{"ha":293,"x_min":146,"x_max":192,"o":"m 192 22 l 146 22 l 146 971 l 192 971 l 192 22 z "},"J":{"ha":474,"x_min":33,"x_max":385,"o":"m 385 214 q 196 -4 385 -4 q 33 72 90 -4 l 65 101 q 193 38 124 38 q 306 94 274 38 q 339 272 339 151 l 339 971 l 385 971 l 385 214 z "},"K":{"ha":753,"x_min":146,"x_max":750,"o":"m 750 22 l 682 22 l 192 493 l 192 22 l 146 22 l 146 971 l 192 971 l 192 542 l 672 971 l 728 971 l 218 521 l 750 22 z "},"L":{"ha":529,"x_min":146,"x_max":532,"o":"m 532 22 l 146 22 l 146 971 l 192 971 l 192 63 l 532 63 l 532 22 z "},"M":{"ha":1117,"x_min":85,"x_max":1072,"o":"m 1072 22 l 1025 22 l 944 850 l 576 17 l 218 858 l 132 22 l 85 22 l 206 951 l 575 96 l 957 951 l 1072 22 z "},"N":{"ha":990,"x_min":146,"x_max":889,"o":"m 889 31 l 192 863 l 192 22 l 146 22 l 146 975 l 843 144 l 843 971 l 889 971 l 889 31 z "},"O":{"ha":1171,"x_min":99,"x_max":1117,"o":"m 1117 494 q 967 141 1117 286 q 607 -4 818 -4 q 412 33 504 -4 q 247 142 319 71 q 99 494 99 288 q 246 849 99 706 q 607 993 393 993 q 968 850 822 993 q 1079 688 1042 779 q 1117 494 1117 597 m 1065 494 q 932 824 1065 689 q 607 958 799 958 q 283 824 417 958 q 150 494 150 689 q 282 167 150 301 q 607 32 414 32 q 932 167 799 32 q 1065 494 1065 301 z "},"P":{"ha":650,"x_min":146,"x_max":626,"o":"m 626 719 q 550 527 626 586 q 318 468 474 468 l 192 468 l 192 22 l 146 22 l 146 971 l 317 971 q 448 963 401 971 q 538 925 494 956 q 626 719 626 861 m 575 713 q 556 817 575 772 q 501 891 536 863 q 416 928 465 919 q 275 936 367 936 l 192 936 l 192 503 l 275 503 q 497 539 435 503 q 575 713 575 583 z "},"Q":{"ha":1171,"x_min":99,"x_max":1117,"o":"m 1117 496 q 1077 301 1117 390 q 950 129 1038 213 l 1100 -47 l 1047 -47 l 921 100 q 763 25 842 49 q 599 1 683 1 q 247 143 393 1 q 136 304 174 214 q 99 496 99 394 q 247 849 99 703 q 412 956 318 918 q 607 993 506 993 q 968 849 819 993 q 1117 496 1117 704 m 1065 496 q 932 824 1065 689 q 607 958 799 958 q 284 824 417 958 q 151 496 151 690 q 284 169 151 303 q 610 35 417 35 q 890 138 771 35 l 676 385 l 729 385 l 925 158 q 1032 322 999 240 q 1065 496 1065 404 z "},"R":{"ha":689,"x_min":146,"x_max":681,"o":"m 681 22 l 628 22 l 279 496 l 192 496 l 192 22 l 146 22 l 146 971 l 306 971 q 606 722 606 971 q 536 554 606 613 q 324 496 467 496 l 681 22 m 553 725 q 496 889 553 842 q 304 936 439 936 l 192 936 l 192 525 l 304 525 q 492 565 438 525 q 553 725 553 611 z "},"S":{"ha":647,"x_min":76,"x_max":592,"o":"m 592 264 q 519 68 592 140 q 324 -4 447 -4 q 76 157 151 -4 l 113 176 q 196 69 139 107 q 328 32 253 32 q 492 93 433 32 q 550 264 550 154 q 497 413 550 356 q 349 513 457 457 q 175 625 221 581 q 113 778 113 686 q 178 933 113 872 q 347 994 243 994 q 536 899 474 994 l 504 879 q 342 958 453 958 q 208 910 257 958 q 160 776 160 861 q 257 613 160 676 q 390 538 267 607 q 542 426 500 479 q 592 264 592 364 z "},"T":{"ha":646,"x_min":49,"x_max":642,"o":"m 642 931 l 368 931 l 368 22 l 322 22 l 322 931 l 49 931 l 49 971 l 642 971 l 642 931 z "},"U":{"ha":917,"x_min":142,"x_max":819,"o":"m 819 374 q 735 90 819 183 q 481 -4 651 -4 q 142 374 142 -4 l 142 971 l 188 971 l 188 344 q 259 109 188 186 q 481 32 331 32 q 774 344 774 32 l 774 971 l 819 971 l 819 374 z "},"V":{"ha":721,"x_min":19,"x_max":744,"o":"m 744 971 l 376 36 l 19 971 l 76 971 l 378 121 l 694 971 l 744 971 z "},"W":{"ha":1203,"x_min":47,"x_max":1200,"o":"m 1200 971 l 899 44 l 624 876 l 360 44 l 47 971 l 94 971 l 360 128 l 624 961 l 900 135 l 1154 971 l 1200 971 z "},"X":{"ha":628,"x_min":22,"x_max":650,"o":"m 650 22 l 601 22 l 338 486 l 69 22 l 22 22 l 313 524 l 51 971 l 101 971 l 338 554 l 576 971 l 622 971 l 363 526 l 650 22 z "},"Y":{"ha":714,"x_min":47,"x_max":713,"o":"m 713 971 l 404 464 l 404 22 l 358 22 l 358 464 l 47 971 l 103 971 l 382 494 l 663 971 l 713 971 z "},"Z":{"ha":733,"x_min":57,"x_max":721,"o":"m 721 971 l 133 61 l 679 61 l 679 22 l 57 22 l 647 933 l 125 933 l 125 971 l 721 971 z "},"[":{"ha":335,"x_min":172,"x_max":325,"o":"m 325 -257 l 172 -257 l 172 993 l 325 993 l 325 971 l 207 971 l 207 -235 l 325 -235 l 325 -257 z "},"\\":{"ha":515,"x_min":33,"x_max":526,"o":"m 526 -107 l 501 -107 l 33 993 l 58 993 l 526 -107 z "},"]":{"ha":335,"x_min":54,"x_max":207,"o":"m 207 -257 l 54 -257 l 54 -235 l 174 -235 l 174 971 l 54 971 l 54 993 l 207 993 l 207 -257 z "},"^":{"ha":1344,"x_min":340,"x_max":1049,"o":"m 1049 633 l 1024 633 l 696 960 l 364 633 l 340 633 l 663 967 l 725 967 l 1049 633 z "},"_":{"ha":650,"x_min":4,"x_max":690,"o":"m 690 -324 l 4 -324 l 4 -290 l 690 -290 l 690 -324 z "},"`":{"ha":650,"x_min":228,"x_max":397,"o":"m 397 721 l 383 721 l 228 914 l 281 914 l 397 721 z "},"a":{"ha":707,"x_min":79,"x_max":617,"o":"m 617 22 l 578 22 l 578 174 l 540 115 q 456 28 496 54 q 344 -4 407 -4 q 151 78 224 -4 q 79 297 79 160 q 151 517 79 432 q 336 601 224 601 q 547 482 485 601 l 581 433 l 578 579 l 617 579 l 617 22 m 579 310 q 519 501 579 432 q 354 569 458 569 q 190 497 253 569 q 128 294 128 424 q 186 97 128 165 q 353 29 244 29 q 517 103 454 29 q 579 310 579 176 z "},"b":{"ha":707,"x_min":133,"x_max":669,"o":"m 669 297 q 597 78 669 161 q 404 -4 524 -4 q 204 115 278 -4 l 172 179 l 172 22 l 133 22 l 133 1029 l 172 1029 l 172 447 l 200 490 q 413 601 269 601 q 598 517 526 601 q 669 297 669 433 m 621 294 q 559 497 621 424 q 394 569 497 569 q 231 501 292 569 q 171 310 171 432 q 233 103 171 178 q 397 29 296 29 q 563 97 504 29 q 621 294 621 165 z "},"c":{"ha":589,"x_min":85,"x_max":568,"o":"m 568 35 q 376 -7 485 -7 q 167 78 249 -7 q 85 293 85 163 q 170 516 85 431 q 393 601 256 601 q 558 569 490 601 l 557 531 q 392 572 479 572 q 197 495 268 572 q 125 288 125 418 q 199 98 125 174 q 392 22 274 22 q 568 72 482 22 l 568 35 z "},"d":{"ha":707,"x_min":82,"x_max":619,"o":"m 619 22 l 581 22 l 581 160 l 543 111 q 454 23 497 50 q 347 -4 411 -4 q 154 78 226 -4 q 82 297 82 160 q 154 517 82 432 q 339 601 226 601 q 456 573 406 601 q 544 493 506 544 l 581 453 l 581 1029 l 619 1029 l 619 22 m 581 310 q 520 501 581 432 q 357 569 460 569 q 193 497 256 569 q 131 294 131 424 q 189 97 131 165 q 356 29 247 29 q 519 103 457 29 q 581 310 581 176 z "},"e":{"ha":646,"x_min":82,"x_max":606,"o":"m 606 319 l 128 321 q 190 103 128 179 q 356 26 253 26 q 564 163 492 26 l 603 142 q 356 -4 519 -4 q 157 78 232 -4 q 82 294 82 161 q 157 518 82 435 q 353 601 232 601 q 536 525 467 601 q 606 319 606 449 m 553 347 q 496 510 553 454 q 342 565 439 565 q 199 508 258 565 q 131 347 140 450 l 553 347 z "},"f":{"ha":315,"x_min":40,"x_max":343,"o":"m 343 1035 l 338 1007 q 294 1015 314 1015 q 215 972 238 1015 q 192 829 192 929 l 192 579 l 324 579 l 324 553 l 192 553 l 192 22 l 153 22 l 153 553 l 40 553 l 40 579 l 153 579 l 153 775 q 160 935 153 896 q 289 1042 179 1042 q 308 1041 299 1042 q 343 1035 317 1040 z "},"g":{"ha":707,"x_min":83,"x_max":618,"o":"m 618 100 q 592 -160 618 -101 q 354 -281 538 -281 q 114 -139 153 -281 l 172 -140 q 361 -250 207 -250 q 472 -226 421 -250 q 546 -167 522 -203 q 572 -101 564 -137 q 579 -21 579 -64 l 579 164 l 544 114 q 454 32 488 54 q 339 -4 400 -4 q 154 77 225 -4 q 83 299 83 158 q 154 518 83 435 q 343 601 225 601 q 457 568 404 601 q 544 483 503 539 l 579 436 l 579 579 l 618 579 l 618 100 m 579 304 q 519 501 579 432 q 353 569 458 569 q 189 497 249 569 q 129 297 129 425 q 188 99 129 169 q 344 29 246 29 q 513 102 447 29 q 579 304 579 175 z "},"h":{"ha":679,"x_min":133,"x_max":597,"o":"m 597 22 l 558 22 l 558 371 q 381 571 558 571 q 172 314 172 571 l 172 22 l 133 22 l 133 1029 l 172 1029 l 172 508 l 197 508 q 281 579 226 557 q 403 601 335 601 q 546 551 494 601 q 597 408 597 501 l 597 22 z "},"i":{"ha":275,"x_min":118,"x_max":203,"o":"m 203 836 q 191 806 203 818 q 160 794 179 794 q 130 806 142 794 q 118 836 118 818 q 130 866 118 854 q 160 878 142 878 q 190 866 176 878 q 203 836 203 854 m 179 22 l 140 22 l 140 579 l 179 579 l 179 22 z "},"j":{"ha":275,"x_min":118,"x_max":203,"o":"m 203 836 q 191 806 203 818 q 160 794 179 794 q 130 806 142 794 q 118 836 118 818 q 130 866 118 854 q 160 878 142 878 q 190 866 176 878 q 203 836 203 854 m 179 -281 l 140 -281 l 140 579 l 179 579 l 179 -281 z "},"k":{"ha":592,"x_min":133,"x_max":578,"o":"m 578 22 l 528 22 l 172 364 l 172 22 l 133 22 l 133 1029 l 172 1029 l 172 285 l 504 579 l 550 579 l 256 333 l 578 22 z "},"l":{"ha":275,"x_min":142,"x_max":181,"o":"m 181 22 l 142 22 l 142 1029 l 181 1029 l 181 22 z "},"m":{"ha":1051,"x_min":133,"x_max":963,"o":"m 963 22 l 924 22 l 924 374 q 757 574 924 574 q 568 317 568 574 l 568 22 l 529 22 l 529 374 q 490 525 529 476 q 365 574 451 574 q 172 317 172 574 l 172 22 l 133 22 l 133 579 l 172 579 l 172 507 l 194 508 q 270 579 219 557 q 386 601 321 601 q 490 569 447 601 q 567 457 532 538 q 661 572 601 538 q 779 601 710 601 q 914 550 865 601 q 963 407 963 499 l 963 22 z "},"n":{"ha":679,"x_min":133,"x_max":597,"o":"m 597 22 l 558 22 l 558 371 q 381 571 558 571 q 172 314 172 571 l 172 22 l 133 22 l 133 579 l 168 579 l 168 433 q 274 572 204 532 q 403 601 325 601 q 546 551 494 601 q 597 408 597 501 l 597 22 z "},"o":{"ha":731,"x_min":83,"x_max":692,"o":"m 692 300 q 601 85 692 174 q 385 -4 511 -4 q 172 84 260 -4 q 83 300 83 172 q 171 514 83 426 q 385 601 258 601 q 603 514 514 601 q 692 300 692 426 m 646 299 q 571 490 646 413 q 388 568 496 568 q 203 491 278 568 q 129 299 129 414 q 204 107 129 185 q 388 29 279 29 q 570 106 494 29 q 646 299 646 183 z "},"p":{"ha":707,"x_min":133,"x_max":667,"o":"m 667 299 q 597 77 667 158 q 411 -4 526 -4 q 292 22 340 -4 q 214 110 244 49 l 172 111 l 172 -281 l 133 -281 l 133 579 l 172 579 l 172 489 l 197 490 q 283 573 225 544 q 407 601 342 601 q 596 518 525 601 q 667 299 667 435 m 621 297 q 561 497 621 425 q 399 569 501 569 q 233 500 294 569 q 172 304 172 431 q 240 100 172 175 q 407 29 304 29 q 564 99 507 29 q 621 297 621 168 z "},"q":{"ha":707,"x_min":83,"x_max":618,"o":"m 618 -281 l 579 -281 l 579 111 l 538 110 q 458 23 508 50 q 339 -4 408 -4 q 154 77 225 -4 q 83 299 83 158 q 154 518 83 435 q 343 601 225 601 q 458 574 408 601 q 538 490 508 547 l 579 489 l 579 579 l 618 579 l 618 -281 m 579 304 q 519 501 579 432 q 353 569 458 569 q 189 497 249 569 q 129 297 129 425 q 188 99 129 169 q 344 29 246 29 q 513 102 447 29 q 579 304 579 175 z "},"r":{"ha":393,"x_min":133,"x_max":432,"o":"m 432 596 l 419 558 q 398 563 410 561 q 376 564 386 564 q 236 492 296 564 q 172 296 172 414 l 172 22 l 133 22 l 133 579 l 172 579 l 172 400 q 271 556 208 503 q 389 601 326 601 q 414 601 401 601 q 432 596 426 597 z "},"s":{"ha":486,"x_min":72,"x_max":450,"o":"m 450 156 q 398 40 450 83 q 254 -4 346 -4 q 143 22 190 -4 q 72 97 96 49 l 113 121 q 271 29 163 29 q 372 62 335 29 q 408 150 408 94 q 331 261 408 222 q 225 306 324 264 q 126 367 158 333 q 94 450 94 400 q 142 560 94 517 q 267 603 189 603 q 438 513 390 603 l 401 492 q 261 569 360 569 q 174 538 208 569 q 139 458 139 506 q 176 381 139 411 q 297 322 214 350 q 410 265 379 294 q 450 156 450 228 z "},"t":{"ha":300,"x_min":40,"x_max":310,"o":"m 310 553 l 190 553 l 190 22 l 151 22 l 151 553 l 40 553 l 40 579 l 151 579 l 151 826 l 190 826 l 190 579 l 310 579 l 310 553 z "},"u":{"ha":688,"x_min":133,"x_max":599,"o":"m 599 258 q 367 -4 599 -4 q 133 258 133 -4 l 133 579 l 172 579 l 172 301 q 215 93 172 157 q 365 29 257 29 q 517 93 474 29 q 560 301 560 157 l 560 579 l 599 579 l 599 258 z "},"v":{"ha":549,"x_min":56,"x_max":539,"o":"m 539 579 l 297 29 l 56 579 l 97 579 l 299 86 l 496 579 l 539 579 z "},"w":{"ha":856,"x_min":49,"x_max":851,"o":"m 851 579 l 643 35 l 453 500 l 258 33 l 49 579 l 89 579 l 261 107 l 450 574 l 640 107 l 811 579 l 851 579 z "},"x":{"ha":503,"x_min":43,"x_max":499,"o":"m 499 22 l 450 22 l 271 282 l 93 22 l 43 22 l 253 313 l 64 579 l 114 579 l 274 342 l 431 579 l 478 579 l 292 313 l 499 22 z "},"y":{"ha":515,"x_min":61,"x_max":507,"o":"m 507 579 l 211 -281 l 171 -281 l 269 6 l 61 579 l 103 579 l 292 65 l 464 579 l 507 579 z "},"z":{"ha":485,"x_min":56,"x_max":483,"o":"m 483 22 l 56 22 l 392 549 l 61 549 l 61 579 l 454 579 l 121 51 l 483 51 l 483 22 z "},"{":{"ha":650,"x_min":135,"x_max":561,"o":"m 561 -267 l 546 -267 q 380 -217 419 -267 q 340 -26 340 -167 l 340 136 q 298 297 340 250 q 150 344 256 344 l 135 343 l 135 376 l 153 374 q 297 422 254 374 q 340 583 340 471 l 340 746 q 376 933 340 888 q 546 986 418 986 l 561 986 l 561 956 l 550 956 q 414 915 447 956 q 381 763 381 875 l 381 599 q 354 447 381 492 q 217 364 319 389 q 354 274 321 332 q 381 121 381 228 l 381 -43 q 413 -196 381 -156 q 549 -236 446 -236 l 561 -236 l 561 -267 z "},"|":{"ha":650,"x_min":329,"x_max":365,"o":"m 365 -315 l 329 -315 l 329 1049 l 365 1049 l 365 -315 z "},"}":{"ha":650,"x_min":135,"x_max":561,"o":"m 561 343 l 544 344 q 397 297 439 344 q 356 136 356 250 l 356 -26 q 318 -214 356 -167 q 149 -267 276 -267 l 135 -267 l 135 -236 l 146 -236 q 282 -196 249 -236 q 315 -43 315 -156 l 315 121 q 339 272 315 226 q 456 356 369 331 l 456 369 q 340 447 371 390 q 315 599 315 494 l 315 763 q 283 913 315 874 q 144 956 247 956 l 135 956 l 135 986 l 149 986 q 318 933 276 986 q 356 746 356 886 l 356 583 q 398 422 356 469 q 544 374 440 374 l 561 375 l 561 343 z "},"~":{"ha":1113,"x_min":128,"x_max":1032,"o":"m 1032 442 q 899 369 961 393 q 775 344 836 344 q 674 360 728 344 q 582 392 649 367 q 483 425 497 421 q 383 440 429 440 q 263 415 326 440 q 128 339 200 389 l 128 388 q 260 458 197 433 q 383 482 324 482 q 483 468 432 482 q 576 436 504 463 q 705 394 671 403 q 775 386 739 386 q 894 411 833 386 q 1032 490 954 436 l 1032 442 z "},"‚":{"ha":356,"x_min":111,"x_max":288,"o":"m 288 119 l 129 -187 l 111 -179 l 232 143 l 288 119 z "},"ƒ":{"ha":756,"x_min":153,"x_max":638,"o":"m 638 971 l 631 940 q 576 949 601 949 q 479 897 508 949 q 444 744 456 856 l 429 601 l 563 601 l 561 582 l 428 582 l 365 19 q 317 -208 346 -151 q 189 -283 279 -283 l 153 -279 l 163 -244 l 189 -246 q 282 -175 253 -246 q 325 56 307 -114 l 383 582 l 272 582 l 274 601 l 385 601 l 401 744 q 452 926 415 871 q 576 981 489 981 q 638 971 608 981 z "},"„":{"ha":550,"x_min":100,"x_max":493,"o":"m 493 115 l 336 -189 l 318 -182 l 435 142 l 493 115 m 274 115 l 117 -189 l 100 -182 l 215 142 l 274 115 z "},"…":{"ha":1344,"x_min":185,"x_max":1206,"o":"m 1206 57 q 1192 24 1206 38 q 1158 10 1178 10 q 1125 24 1139 10 q 1111 57 1111 38 q 1125 90 1111 76 q 1158 104 1139 104 q 1192 91 1179 104 q 1206 57 1206 78 m 742 57 q 728 24 742 38 q 694 10 714 10 q 661 24 675 10 q 647 57 647 38 q 661 90 647 76 q 694 104 675 104 q 728 91 715 104 q 742 57 742 78 m 279 57 q 265 24 279 38 q 232 10 251 10 q 199 24 213 10 q 185 57 185 38 q 199 90 185 76 q 232 104 213 104 q 266 91 253 104 q 279 57 279 78 z "},"†":{"ha":663,"x_min":90,"x_max":618,"o":"m 618 547 l 374 547 l 374 -281 l 335 -281 l 335 547 l 90 547 l 90 581 l 335 581 l 335 971 l 374 971 l 374 581 l 618 581 l 618 547 z "},"‡":{"ha":663,"x_min":90,"x_max":618,"o":"m 618 49 l 372 49 l 372 -281 l 333 -281 l 333 49 l 90 49 l 90 81 l 333 81 l 333 614 l 90 614 l 90 646 l 333 646 l 333 971 l 372 971 l 372 646 l 618 646 l 618 614 l 372 614 l 372 81 l 618 81 l 618 49 z "},"ˆ":{"ha":650,"x_min":193,"x_max":500,"o":"m 500 721 l 489 721 l 349 906 l 204 721 l 193 721 l 310 914 l 383 914 l 500 721 z "},"‰":{"ha":1450,"x_min":64,"x_max":1431,"o":"m 1431 226 q 1385 56 1431 117 q 1254 -4 1339 -4 q 1124 56 1171 -4 q 1076 226 1076 117 q 1124 397 1076 336 q 1254 458 1171 458 q 1384 398 1338 458 q 1431 226 1431 338 m 950 226 q 903 57 950 118 q 772 -4 856 -4 q 642 56 689 -4 q 596 226 596 117 q 643 397 596 336 q 772 458 690 458 q 903 398 857 458 q 950 226 950 338 m 789 981 l 242 -4 l 221 -4 l 767 981 l 789 981 m 418 749 q 371 578 418 639 q 240 517 324 517 q 110 577 157 517 q 64 749 64 638 q 111 919 64 858 q 240 981 158 981 q 372 920 325 981 q 418 749 418 860 m 1394 228 q 1254 440 1394 440 q 1151 386 1189 440 q 1113 228 1113 332 q 1150 68 1113 122 q 1254 14 1188 14 q 1358 69 1321 14 q 1394 228 1394 124 m 914 228 q 878 388 914 335 q 772 440 842 440 q 669 385 707 440 q 632 228 632 331 q 669 69 632 124 q 772 14 706 14 q 876 69 838 14 q 914 228 914 125 m 382 750 q 346 910 382 857 q 240 963 310 963 q 138 908 175 963 q 100 750 100 853 q 137 591 100 646 q 240 536 174 536 q 344 592 306 536 q 382 750 382 647 z "},"Š":{"ha":647,"x_min":76,"x_max":592,"o":"m 592 264 q 519 68 592 140 q 324 -4 447 -4 q 76 157 151 -4 l 113 176 q 196 69 139 107 q 328 32 253 32 q 492 93 433 32 q 550 264 550 154 q 497 413 550 356 q 349 513 457 457 q 175 625 221 581 q 113 778 113 686 q 178 933 113 872 q 347 994 243 994 q 536 899 474 994 l 504 879 q 342 958 453 958 q 208 910 257 958 q 160 776 160 861 q 257 613 160 676 q 390 538 267 607 q 542 426 500 479 q 592 264 592 364 m 499 1306 l 382 1113 l 308 1113 l 192 1306 l 203 1306 l 347 1122 l 488 1306 l 499 1306 z "},"‹":{"ha":242,"x_min":56,"x_max":226,"o":"m 226 76 l 207 65 l 56 296 l 201 533 l 222 521 l 86 294 l 226 76 z "},"Œ":{"ha":1529,"x_min":99,"x_max":1457,"o":"m 1457 22 l 1028 22 l 1028 211 l 986 222 q 821 57 925 115 q 588 -1 717 -1 q 289 103 421 -1 q 149 276 199 174 q 99 497 99 378 q 135 688 99 599 q 240 849 171 778 q 596 994 383 994 q 831 930 731 994 q 1028 707 932 865 l 1028 971 l 1457 971 l 1457 931 l 1067 931 l 1067 575 l 1457 575 l 1457 535 l 1067 535 l 1067 63 l 1457 63 l 1457 22 m 1025 496 q 901 828 1025 700 q 585 957 776 957 q 315 863 436 957 q 188 701 233 797 q 142 496 142 604 q 272 169 142 308 q 415 71 332 106 q 585 36 497 36 q 899 168 772 36 q 1025 496 1025 300 z "},"‘":{"ha":356,"x_min":114,"x_max":289,"o":"m 289 981 l 172 658 l 114 685 l 271 988 l 289 981 z "},"’":{"ha":356,"x_min":111,"x_max":286,"o":"m 286 960 l 129 656 l 111 663 l 228 985 l 286 960 z "},"“":{"ha":550,"x_min":103,"x_max":496,"o":"m 496 981 l 379 658 l 321 685 l 478 988 l 496 981 m 276 981 l 160 658 l 103 685 l 258 988 l 276 981 z "},"”":{"ha":550,"x_min":100,"x_max":493,"o":"m 493 960 l 336 656 l 318 663 l 435 985 l 493 960 m 274 960 l 117 656 l 100 663 l 215 985 l 274 960 z "},"•":{"ha":775,"x_min":231,"x_max":588,"o":"m 588 517 q 535 390 588 443 q 408 338 482 338 q 283 390 335 338 q 231 517 231 442 q 283 642 231 590 q 410 694 335 694 q 535 642 483 694 q 588 517 588 590 z "},"–":{"ha":650,"x_min":8,"x_max":686,"o":"m 686 281 l 8 281 l 8 318 l 686 318 l 686 281 z "},"—":{"ha":1344,"x_min":8,"x_max":1381,"o":"m 1381 281 l 8 281 l 8 318 l 1381 318 l 1381 281 z "},"˜":{"ha":650,"x_min":181,"x_max":514,"o":"m 514 856 q 410 775 481 775 q 389 777 400 775 q 372 781 378 779 l 318 799 q 272 806 299 806 q 197 764 225 806 l 181 764 q 285 840 208 840 l 318 836 l 371 818 q 419 810 396 810 q 499 856 474 810 l 514 856 z "},"™":{"ha":1113,"x_min":193,"x_max":915,"o":"m 193 985 l 471 985 l 471 957 l 353 957 l 353 628 l 314 628 l 314 957 l 193 957 l 193 985 m 561 985 l 621 985 l 743 676 l 857 985 l 915 985 l 915 628 l 883 628 l 883 960 l 758 628 l 728 628 l 594 960 l 594 628 l 561 628 l 561 985 z "},"š":{"ha":486,"x_min":72,"x_max":450,"o":"m 450 156 q 398 40 450 83 q 254 -4 346 -4 q 143 22 190 -4 q 72 97 96 49 l 113 121 q 271 29 163 29 q 372 62 335 29 q 408 150 408 94 q 331 261 408 222 q 225 306 324 264 q 126 367 158 333 q 94 450 94 400 q 142 560 94 517 q 267 603 189 603 q 438 513 390 603 l 401 492 q 261 569 360 569 q 174 538 208 569 q 139 458 139 506 q 176 381 139 411 q 297 322 214 350 q 410 265 379 294 q 450 156 450 228 m 418 914 l 301 721 l 228 721 l 111 914 l 122 914 l 267 731 l 407 914 l 418 914 z "},"›":{"ha":242,"x_min":60,"x_max":231,"o":"m 231 296 l 78 65 l 60 76 l 201 296 l 63 521 l 85 533 l 231 296 z "},"œ":{"ha":1204,"x_min":85,"x_max":1164,"o":"m 1164 317 l 1164 322 l 686 322 l 686 296 q 748 102 686 175 q 907 29 810 29 q 1121 164 1049 29 l 1160 143 q 917 -4 1072 -4 q 765 42 826 -4 q 667 193 699 92 q 545 43 614 89 q 386 -3 476 -3 q 171 85 257 -3 q 85 300 85 172 q 173 513 85 425 q 382 601 261 601 q 544 558 476 601 q 665 413 611 515 q 763 556 700 510 q 908 603 825 603 q 1094 526 1024 603 q 1164 317 1164 449 m 1111 347 q 1053 510 1111 454 q 900 567 996 567 q 752 508 814 567 q 690 347 690 449 l 1111 347 m 647 299 q 572 492 647 414 q 389 569 497 569 q 206 492 281 569 q 131 299 131 414 q 206 107 131 185 q 389 29 281 29 q 572 106 496 29 q 647 299 647 183 z "},"Ÿ":{"ha":714,"x_min":47,"x_max":713,"o":"m 713 971 l 404 464 l 404 22 l 358 22 l 358 464 l 47 971 l 103 971 l 382 494 l 663 971 l 713 971 m 542 1197 q 499 1154 542 1154 q 467 1165 479 1154 q 454 1197 454 1176 q 467 1228 454 1215 q 499 1242 481 1242 q 529 1229 517 1242 q 542 1197 542 1217 m 304 1197 q 260 1154 304 1154 q 217 1197 217 1154 q 229 1228 217 1214 q 260 1242 242 1242 q 291 1228 278 1242 q 304 1197 304 1215 z "}," ":{"ha":650,"x_min":0,"x_max":0,"o":""},"¡":{"ha":386,"x_min":168,"x_max":263,"o":"m 263 946 q 249 913 263 926 q 215 899 235 899 q 182 913 196 899 q 168 946 168 926 q 182 979 168 965 q 215 993 196 993 q 249 980 236 993 q 263 946 263 967 m 235 -4 l 196 -4 l 196 763 l 235 763 l 235 -4 z "},"¢":{"ha":756,"x_min":106,"x_max":608,"o":"m 608 240 q 526 210 568 219 q 417 200 483 200 l 417 61 l 407 61 l 407 200 q 188 286 269 200 q 106 499 106 372 q 185 708 106 624 q 407 808 264 792 l 407 915 l 417 915 l 417 807 q 517 799 475 807 q 608 774 558 792 l 608 735 q 519 767 568 756 q 417 779 471 779 l 417 225 q 529 244 488 233 q 608 274 571 254 l 608 240 m 407 229 l 407 776 q 222 697 294 776 q 150 507 150 618 q 216 318 150 392 q 407 229 282 244 z "},"£":{"ha":756,"x_min":90,"x_max":718,"o":"m 718 104 q 550 -3 653 -3 q 436 22 497 -3 q 268 79 296 79 q 122 3 186 79 l 97 19 q 215 111 138 86 q 276 268 276 199 q 268 340 276 304 q 239 429 260 376 l 90 429 l 90 446 l 229 446 q 166 603 186 538 q 146 719 146 669 q 224 906 146 832 q 428 981 303 981 q 628 914 551 981 q 704 732 704 847 l 663 724 q 599 888 663 829 q 431 946 535 946 q 257 883 321 946 q 193 718 193 821 q 268 446 193 622 l 525 446 l 525 429 l 272 429 q 308 288 308 331 q 286 203 308 243 q 203 110 264 163 q 406 71 300 110 q 544 32 511 32 q 693 121 631 32 l 718 104 z "},"¤":{"ha":797,"x_min":69,"x_max":774,"o":"m 774 283 l 739 249 l 601 389 q 421 325 519 325 q 243 389 324 325 l 103 249 l 69 283 l 210 422 q 163 508 179 461 q 146 600 146 554 q 210 779 146 697 l 69 917 l 103 951 l 243 813 q 421 876 325 876 q 601 813 517 876 l 739 951 l 774 917 l 635 779 q 697 600 697 696 q 635 422 697 504 l 774 283 m 651 601 q 585 763 651 696 q 422 829 518 829 q 260 763 326 829 q 193 601 193 696 q 259 440 193 507 q 422 372 325 372 q 585 439 518 372 q 651 601 651 506 z "},"¥":{"ha":757,"x_min":44,"x_max":756,"o":"m 756 450 l 424 450 l 424 22 l 382 22 l 382 450 l 44 450 l 44 472 l 372 472 l 278 626 l 44 626 l 44 650 l 261 650 l 69 963 l 117 963 l 401 483 l 693 963 l 732 963 l 542 650 l 756 650 l 756 626 l 526 626 l 432 472 l 756 472 l 756 450 z "},"¦":{"ha":650,"x_min":329,"x_max":365,"o":"m 365 469 l 329 469 l 329 958 l 365 958 l 365 469 m 365 -225 l 329 -225 l 329 264 l 365 264 l 365 -225 z "},"§":{"ha":663,"x_min":100,"x_max":611,"o":"m 611 363 q 564 222 611 276 q 392 125 513 163 q 538 30 496 79 q 579 -86 579 -19 q 518 -229 579 -172 q 361 -286 457 -286 q 201 -231 261 -286 q 142 -81 142 -175 l 185 -85 q 360 -243 199 -243 q 487 -199 442 -243 q 532 -76 532 -156 q 481 39 532 -3 q 342 107 444 68 q 164 194 210 154 q 100 360 100 251 q 153 497 100 438 q 326 594 207 556 q 176 684 217 639 q 135 797 135 729 q 197 940 135 885 q 364 994 258 994 q 522 942 467 994 q 578 793 578 889 l 578 799 l 529 799 q 358 965 515 965 q 235 919 283 965 q 186 803 186 874 q 243 675 186 721 q 397 601 285 642 q 557 510 508 561 q 611 363 611 453 m 565 360 q 508 510 565 451 q 357 568 451 568 q 208 508 269 568 q 147 360 147 449 q 204 207 147 264 q 357 150 261 150 q 504 211 443 150 q 565 360 565 272 z "},"¨":{"ha":650,"x_min":185,"x_max":510,"o":"m 510 806 q 467 763 510 763 q 435 774 447 763 q 422 806 422 785 q 435 837 422 824 q 467 850 449 850 q 497 838 485 850 q 510 806 510 825 m 272 806 q 228 763 272 763 q 185 806 185 763 q 197 836 185 822 q 228 850 210 850 q 259 837 246 850 q 272 806 272 824 z "},"©":{"ha":1113,"x_min":89,"x_max":1068,"o":"m 1068 488 q 928 143 1068 283 q 766 35 856 72 q 578 -3 676 -3 q 393 35 482 -3 q 233 142 304 72 q 89 488 89 289 q 232 831 89 686 q 578 976 375 976 q 924 833 781 976 q 1068 488 1068 689 m 1033 488 q 901 810 1033 679 q 578 942 769 942 q 256 808 388 942 q 124 488 124 674 q 258 166 124 300 q 578 32 392 32 q 901 169 764 32 q 1000 313 967 232 q 1033 488 1033 393 m 803 363 q 728 234 793 285 q 574 183 664 183 q 394 265 461 183 q 326 486 326 346 q 397 710 326 629 q 583 792 467 792 q 727 747 668 792 q 797 629 786 703 l 751 629 q 579 756 718 756 q 431 685 485 756 q 378 486 378 615 q 433 292 378 363 q 579 221 489 221 q 699 260 649 221 q 761 363 749 299 l 803 363 z "},"ª":{"ha":519,"x_min":51,"x_max":471,"o":"m 471 581 l 425 581 l 425 653 l 410 653 q 258 563 369 563 q 108 622 165 563 q 51 781 51 682 q 108 939 51 878 q 253 1000 165 1000 q 410 913 368 1000 l 425 913 l 425 985 l 471 985 l 471 581 m 426 789 q 383 918 426 872 q 265 964 340 964 q 148 915 192 964 q 104 778 104 865 q 265 600 104 600 q 383 649 339 600 q 426 789 426 699 z "},"«":{"ha":486,"x_min":57,"x_max":469,"o":"m 469 76 l 450 64 l 299 296 l 446 533 l 467 521 l 329 296 l 469 76 m 226 76 l 208 64 l 57 296 l 203 533 l 224 521 l 88 296 l 226 76 z "},"¬":{"ha":1113,"x_min":176,"x_max":981,"o":"m 981 243 l 947 243 l 947 542 l 176 542 l 176 575 l 981 575 l 981 243 z "},"­":{"ha":1113,"x_min":194,"x_max":963,"o":"m 963 410 l 194 410 l 194 419 l 963 419 l 963 410 z "},"®":{"ha":1113,"x_min":89,"x_max":1068,"o":"m 1068 488 q 928 144 1068 285 q 578 -3 776 -3 q 393 35 482 -3 q 233 142 304 72 q 89 488 89 289 q 232 831 89 686 q 578 976 375 976 q 924 833 781 976 q 1068 488 1068 690 m 1033 488 q 900 810 1033 678 q 578 942 767 942 q 255 808 386 942 q 124 488 124 675 q 258 167 124 301 q 578 32 393 32 q 903 169 765 32 q 1033 488 1033 296 m 825 624 q 787 527 825 567 q 683 481 749 488 l 813 211 l 751 211 l 626 469 l 444 471 l 444 211 l 393 211 l 393 779 l 594 779 q 769 742 713 779 q 825 624 825 706 m 764 628 q 579 739 764 739 l 444 739 l 444 511 l 578 511 q 722 535 681 511 q 764 628 764 558 z "},"¯":{"ha":650,"x_min":194,"x_max":500,"o":"m 500 781 l 194 781 l 194 815 l 500 815 l 500 781 z "},"°":{"ha":413,"x_min":51,"x_max":406,"o":"m 406 797 q 353 673 406 725 q 228 621 301 621 q 103 672 154 621 q 51 797 51 724 q 103 924 51 872 q 229 975 154 975 q 353 923 301 975 q 406 797 406 871 m 382 797 q 338 906 382 861 q 229 950 293 950 q 120 906 164 950 q 76 797 76 863 q 121 689 76 733 q 229 644 165 644 q 338 689 293 644 q 382 797 382 733 z "},"±":{"ha":1113,"x_min":176,"x_max":981,"o":"m 981 501 l 596 501 l 596 258 l 563 258 l 563 501 l 176 501 l 176 535 l 563 535 l 563 776 l 596 776 l 596 535 l 981 535 l 981 501 m 981 53 l 176 53 l 176 86 l 981 86 l 981 53 z "},"²":{"ha":483,"x_min":51,"x_max":447,"o":"m 447 826 q 422 731 447 778 q 292 582 396 685 l 133 429 l 444 429 l 444 399 l 51 399 l 179 525 q 307 654 288 633 q 400 822 400 754 q 358 915 400 879 q 247 951 317 951 q 137 913 178 951 q 96 806 96 875 l 104 806 l 104 811 l 54 811 q 108 937 54 890 q 253 983 161 983 q 394 940 342 983 q 447 826 447 897 z "},"³":{"ha":483,"x_min":53,"x_max":451,"o":"m 451 549 q 398 428 451 474 q 251 383 344 383 q 112 422 163 383 q 53 532 61 460 l 100 532 q 251 414 113 414 q 365 450 325 414 q 406 549 406 486 q 365 648 406 611 q 254 685 325 685 l 233 683 l 233 718 l 257 718 q 360 749 324 718 q 396 833 396 779 q 358 919 396 886 q 258 953 321 953 q 126 857 146 953 l 81 857 q 139 949 90 914 q 258 983 188 983 q 389 943 338 983 q 440 838 440 903 q 410 755 440 789 q 318 706 379 721 l 318 697 q 451 549 451 658 z "},"´":{"ha":650,"x_min":297,"x_max":467,"o":"m 467 914 l 311 721 l 297 721 l 414 914 l 467 914 z "},"µ":{"ha":697,"x_min":-47,"x_max":665,"o":"m 665 699 l 558 192 q 547 135 551 161 q 542 96 542 110 q 610 31 542 31 l 604 7 l 572 3 q 504 67 504 3 l 507 94 l 465 107 q 274 3 408 3 q 168 38 210 3 q 82 178 119 78 l -11 -265 l -47 -265 l 157 699 l 193 699 l 115 325 q 107 274 110 297 q 104 225 104 251 q 285 28 104 28 q 446 104 376 28 q 549 332 515 181 l 629 699 l 665 699 z "},"¶":{"ha":650,"x_min":69,"x_max":624,"o":"m 624 968 l 536 968 l 536 8 l 506 8 l 506 968 l 358 968 l 358 8 l 328 8 l 328 539 q 139 603 208 539 q 69 767 69 667 q 140 931 69 868 q 329 994 211 994 l 624 994 l 624 968 z "},"·":{"ha":356,"x_min":131,"x_max":269,"o":"m 131 488 q 151 537 131 517 q 200 557 171 557 q 249 537 229 557 q 269 488 269 517 q 250 438 269 457 q 200 418 231 418 q 151 438 171 418 q 131 488 131 458 z "},"¸":{"ha":650,"x_min":208,"x_max":510,"o":"m 510 -171 q 368 -278 510 -278 q 208 -254 303 -278 l 208 -215 q 288 -228 240 -221 q 357 -236 336 -236 q 446 -172 446 -236 q 349 -107 446 -107 l 322 -108 l 322 -4 l 356 -4 l 356 -72 l 369 -72 q 473 -99 436 -72 q 510 -171 510 -125 z "},"¹":{"ha":483,"x_min":133,"x_max":297,"o":"m 297 394 l 249 394 l 249 936 l 133 936 l 157 976 l 297 976 l 297 394 z "},"º":{"ha":538,"x_min":54,"x_max":528,"o":"m 528 782 q 457 626 528 690 q 289 563 386 563 q 124 626 193 563 q 54 782 54 690 q 123 936 54 872 q 289 1000 192 1000 q 458 937 388 1000 q 528 782 528 874 m 476 781 q 423 910 476 858 q 290 963 369 963 q 158 911 211 963 q 106 781 106 860 q 158 651 106 703 q 290 600 211 600 q 422 651 368 600 q 476 781 476 703 z "},"»":{"ha":486,"x_min":61,"x_max":474,"o":"m 474 296 l 324 64 l 303 78 l 444 296 l 307 521 l 328 533 l 474 296 m 231 296 l 79 64 l 61 76 l 203 296 l 64 521 l 85 533 l 231 296 z "},"¼":{"ha":1196,"x_min":136,"x_max":1157,"o":"m 1157 149 l 1093 149 l 1093 8 l 1053 8 l 1053 149 l 779 149 l 1093 547 l 1093 176 l 1157 176 l 1157 149 m 950 994 l 340 -18 l 289 -18 l 900 994 l 950 994 m 279 438 l 242 438 l 242 943 l 136 943 l 153 971 l 279 971 l 279 438 m 1053 176 l 1053 457 l 831 176 l 1053 176 z "},"½":{"ha":1196,"x_min":136,"x_max":1163,"o":"m 1163 407 q 1121 292 1163 347 q 1014 179 1097 260 l 863 35 l 1160 35 l 1160 8 l 786 8 l 907 126 q 1029 246 1013 229 q 1118 404 1118 339 q 1078 492 1118 458 q 971 525 1038 525 q 867 489 906 525 q 828 388 828 453 l 836 388 l 836 393 l 788 393 q 839 510 788 467 q 978 553 890 553 q 1111 513 1060 553 q 1163 407 1163 472 m 950 994 l 340 -18 l 289 -18 l 900 994 l 950 994 m 279 438 l 242 438 l 242 943 l 136 943 l 153 971 l 279 971 l 279 438 z "},"¾":{"ha":1196,"x_min":50,"x_max":1157,"o":"m 1157 149 l 1093 149 l 1093 8 l 1053 8 l 1053 149 l 779 149 l 1093 547 l 1093 176 l 1157 176 l 1157 149 m 950 994 l 340 -18 l 289 -18 l 900 994 l 950 994 m 431 576 q 380 465 431 507 q 240 422 329 422 q 50 561 69 422 l 94 561 q 240 451 107 451 q 349 485 311 451 q 388 576 388 518 q 349 670 388 636 q 243 704 311 704 l 222 704 l 222 735 l 246 735 q 343 764 308 735 q 378 842 378 793 q 342 924 378 894 q 247 954 307 954 q 121 865 138 954 l 76 865 q 133 951 88 919 q 247 982 178 982 q 372 945 324 982 q 419 847 419 908 q 303 724 419 753 l 303 715 q 431 576 431 679 m 1053 176 l 1053 457 l 831 176 l 1053 176 z "},"¿":{"ha":669,"x_min":139,"x_max":567,"o":"m 411 946 q 397 913 411 926 q 364 899 383 899 q 318 946 318 899 q 331 980 318 967 q 364 993 344 993 q 397 979 383 993 q 411 946 411 965 m 567 225 q 506 58 567 119 q 343 -4 446 -4 q 194 51 250 -4 q 139 200 139 107 q 190 343 139 288 q 331 444 221 376 q 424 507 403 490 q 489 629 489 560 q 451 724 489 688 q 351 760 414 760 q 242 722 282 760 q 203 617 203 683 l 203 626 l 172 626 l 172 621 q 361 788 172 788 q 482 743 435 788 q 529 628 529 699 q 501 532 529 572 q 354 418 474 492 q 250 347 274 367 q 179 206 179 288 q 224 85 179 131 q 347 39 268 39 q 483 91 435 39 q 531 243 531 143 l 531 225 l 567 225 z "},"À":{"ha":785,"x_min":21,"x_max":808,"o":"m 808 22 l 758 22 l 632 358 l 196 358 l 64 22 l 21 22 l 424 974 l 808 22 m 621 392 l 419 907 l 208 392 l 621 392 m 465 1113 l 451 1113 l 296 1306 l 349 1306 l 465 1113 z "},"Á":{"ha":785,"x_min":21,"x_max":808,"o":"m 808 22 l 758 22 l 632 358 l 196 358 l 64 22 l 21 22 l 424 974 l 808 22 m 621 392 l 419 907 l 208 392 l 621 392 m 535 1306 l 379 1113 l 365 1113 l 482 1306 l 535 1306 z "},"Â":{"ha":785,"x_min":21,"x_max":808,"o":"m 808 22 l 758 22 l 632 358 l 196 358 l 64 22 l 21 22 l 424 974 l 808 22 m 621 392 l 419 907 l 208 392 l 621 392 m 568 1113 l 557 1113 l 417 1297 l 272 1113 l 261 1113 l 378 1306 l 451 1306 l 568 1113 z "},"Ã":{"ha":785,"x_min":21,"x_max":808,"o":"m 808 22 l 758 22 l 632 358 l 196 358 l 64 22 l 21 22 l 424 974 l 808 22 m 621 392 l 419 907 l 208 392 l 621 392 m 582 1247 q 478 1167 549 1167 q 457 1169 468 1167 q 440 1172 446 1171 l 386 1190 q 340 1197 367 1197 q 265 1156 293 1197 l 249 1156 q 353 1232 276 1232 l 386 1228 l 439 1210 q 488 1201 464 1201 q 567 1247 542 1201 l 582 1247 z "},"Ä":{"ha":785,"x_min":21,"x_max":808,"o":"m 808 22 l 758 22 l 632 358 l 196 358 l 64 22 l 21 22 l 424 974 l 808 22 m 621 392 l 419 907 l 208 392 l 621 392 m 578 1197 q 535 1154 578 1154 q 503 1165 515 1154 q 490 1197 490 1176 q 503 1228 490 1215 q 535 1242 517 1242 q 565 1229 553 1242 q 578 1197 578 1217 m 340 1197 q 296 1154 340 1154 q 253 1197 253 1154 q 265 1228 253 1214 q 296 1242 278 1242 q 327 1228 314 1242 q 340 1197 340 1215 z "},"Å":{"ha":785,"x_min":21,"x_max":808,"o":"m 561 1178 q 521 1081 561 1121 q 424 1040 481 1040 q 326 1081 367 1040 q 286 1178 286 1121 q 326 1275 286 1235 q 424 1315 367 1315 q 522 1276 482 1315 q 561 1178 561 1236 m 808 22 l 758 22 l 632 358 l 196 358 l 64 22 l 21 22 l 426 968 l 808 22 m 536 1178 q 504 1258 536 1226 q 424 1290 472 1290 q 344 1258 376 1290 q 311 1178 311 1225 q 344 1098 311 1131 q 424 1065 376 1065 q 503 1098 471 1065 q 536 1178 536 1131 m 621 392 l 419 904 l 208 392 l 621 392 z "},"Æ":{"ha":1100,"x_min":38,"x_max":1108,"o":"m 1108 22 l 703 22 l 588 358 l 196 358 l 76 22 l 38 22 l 379 971 l 768 971 l 781 931 l 438 931 l 560 575 l 917 575 l 931 535 l 574 535 l 735 63 l 1096 63 l 1108 22 m 576 392 l 400 931 l 204 392 l 576 392 z "},"Ç":{"ha":949,"x_min":99,"x_max":900,"o":"m 900 900 l 899 856 q 607 958 765 958 q 277 830 403 958 q 151 496 151 701 q 277 162 151 289 q 594 35 403 35 q 893 128 757 35 l 892 79 q 749 17 824 38 q 599 -4 674 -4 q 240 135 382 -4 q 99 496 99 274 q 242 853 99 713 q 599 993 385 993 q 900 900 776 993 m 746 -171 q 604 -278 746 -278 q 444 -254 539 -278 l 444 -215 q 524 -228 476 -221 q 593 -236 572 -236 q 682 -172 682 -236 q 585 -107 682 -107 l 558 -108 l 558 -4 l 592 -4 l 592 -72 l 606 -72 q 709 -99 672 -72 q 746 -171 746 -125 z "},"È":{"ha":668,"x_min":146,"x_max":593,"o":"m 593 22 l 146 22 l 146 971 l 593 971 l 593 931 l 192 931 l 192 575 l 593 575 l 593 535 l 192 535 l 192 63 l 593 63 l 593 22 m 417 1113 l 403 1113 l 247 1306 l 300 1306 l 417 1113 z "},"É":{"ha":668,"x_min":146,"x_max":593,"o":"m 593 22 l 146 22 l 146 971 l 593 971 l 593 931 l 192 931 l 192 575 l 593 575 l 593 535 l 192 535 l 192 63 l 593 63 l 593 22 m 486 1306 l 331 1113 l 317 1113 l 433 1306 l 486 1306 z "},"Ê":{"ha":668,"x_min":146,"x_max":593,"o":"m 593 22 l 146 22 l 146 971 l 593 971 l 593 931 l 192 931 l 192 575 l 593 575 l 593 535 l 192 535 l 192 63 l 593 63 l 593 22 m 519 1113 l 508 1113 l 368 1297 l 224 1113 l 213 1113 l 329 1306 l 403 1306 l 519 1113 z "},"Ë":{"ha":668,"x_min":146,"x_max":593,"o":"m 593 22 l 146 22 l 146 971 l 593 971 l 593 931 l 192 931 l 192 575 l 593 575 l 593 535 l 192 535 l 192 63 l 593 63 l 593 22 m 529 1197 q 486 1154 529 1154 q 454 1165 467 1154 q 442 1197 442 1176 q 455 1228 442 1215 q 486 1242 468 1242 q 517 1229 504 1242 q 529 1197 529 1217 m 292 1197 q 247 1154 292 1154 q 204 1197 204 1154 q 217 1228 204 1214 q 247 1242 229 1242 q 278 1228 265 1242 q 292 1197 292 1215 z "},"Ì":{"ha":293,"x_min":50,"x_max":219,"o":"m 192 22 l 146 22 l 146 971 l 192 971 l 192 22 m 219 1113 l 206 1113 l 50 1306 l 103 1306 l 219 1113 z "},"Í":{"ha":293,"x_min":119,"x_max":289,"o":"m 192 22 l 146 22 l 146 971 l 192 971 l 192 22 m 289 1306 l 133 1113 l 119 1113 l 236 1306 l 289 1306 z "},"Î":{"ha":293,"x_min":15,"x_max":322,"o":"m 192 22 l 146 22 l 146 971 l 192 971 l 192 22 m 322 1113 l 311 1113 l 171 1297 l 26 1113 l 15 1113 l 132 1306 l 206 1306 l 322 1113 z "},"Ï":{"ha":293,"x_min":7,"x_max":332,"o":"m 192 22 l 146 22 l 146 971 l 192 971 l 192 22 m 332 1197 q 289 1154 332 1154 q 257 1165 269 1154 q 244 1197 244 1176 q 258 1228 244 1215 q 289 1242 271 1242 q 319 1229 307 1242 q 332 1197 332 1217 m 94 1197 q 50 1154 94 1154 q 7 1197 7 1154 q 19 1228 7 1214 q 50 1242 32 1242 q 81 1228 68 1242 q 94 1197 94 1215 z "},"Ð":{"ha":929,"x_min":22,"x_max":875,"o":"m 875 496 q 713 108 875 235 q 539 35 642 53 q 328 22 467 22 l 153 22 l 153 539 l 22 539 l 22 564 l 153 564 l 153 971 l 285 971 q 529 961 464 971 q 714 886 640 944 q 875 496 875 751 m 822 497 q 717 829 822 711 q 551 924 651 900 q 326 940 479 940 l 199 940 l 199 564 l 488 564 l 488 539 l 199 539 l 199 56 l 353 56 q 528 64 475 56 q 664 117 610 76 q 781 269 740 171 q 822 497 822 367 z "},"Ñ":{"ha":990,"x_min":146,"x_max":889,"o":"m 889 31 l 192 863 l 192 22 l 146 22 l 146 975 l 843 144 l 843 971 l 889 971 l 889 31 m 685 1247 q 581 1167 651 1167 q 560 1169 571 1167 q 543 1172 549 1171 l 489 1190 q 443 1197 469 1197 q 368 1156 396 1197 l 351 1156 q 456 1232 379 1232 l 489 1228 l 542 1210 q 590 1201 567 1201 q 669 1247 644 1201 l 685 1247 z "},"Ò":{"ha":1171,"x_min":99,"x_max":1117,"o":"m 1117 494 q 967 141 1117 286 q 607 -4 818 -4 q 412 33 504 -4 q 247 142 319 71 q 99 494 99 288 q 246 849 99 706 q 607 993 393 993 q 968 850 822 993 q 1079 688 1042 779 q 1117 494 1117 597 m 1065 494 q 932 824 1065 689 q 607 958 799 958 q 283 824 417 958 q 150 494 150 689 q 282 167 150 301 q 607 32 414 32 q 932 167 799 32 q 1065 494 1065 301 m 658 1113 l 644 1113 l 489 1306 l 542 1306 l 658 1113 z "},"Ó":{"ha":1171,"x_min":99,"x_max":1117,"o":"m 1117 494 q 967 141 1117 286 q 607 -4 818 -4 q 412 33 504 -4 q 247 142 319 71 q 99 494 99 288 q 246 849 99 706 q 607 993 393 993 q 968 850 822 993 q 1079 688 1042 779 q 1117 494 1117 597 m 1065 494 q 932 824 1065 689 q 607 958 799 958 q 283 824 417 958 q 150 494 150 689 q 282 167 150 301 q 607 32 414 32 q 932 167 799 32 q 1065 494 1065 301 m 728 1306 l 572 1113 l 558 1113 l 675 1306 l 728 1306 z "},"Ô":{"ha":1171,"x_min":99,"x_max":1117,"o":"m 1117 494 q 967 141 1117 286 q 607 -4 818 -4 q 412 33 504 -4 q 247 142 319 71 q 99 494 99 288 q 246 849 99 706 q 607 993 393 993 q 968 850 822 993 q 1079 688 1042 779 q 1117 494 1117 597 m 1065 494 q 932 824 1065 689 q 607 958 799 958 q 283 824 417 958 q 150 494 150 689 q 282 167 150 301 q 607 32 414 32 q 932 167 799 32 q 1065 494 1065 301 m 761 1113 l 750 1113 l 610 1297 l 465 1113 l 454 1113 l 571 1306 l 644 1306 l 761 1113 z "},"Õ":{"ha":1171,"x_min":99,"x_max":1117,"o":"m 1117 494 q 967 141 1117 286 q 607 -4 818 -4 q 412 33 504 -4 q 247 142 319 71 q 99 494 99 288 q 246 849 99 706 q 607 993 393 993 q 968 850 822 993 q 1079 688 1042 779 q 1117 494 1117 597 m 1065 494 q 932 824 1065 689 q 607 958 799 958 q 283 824 417 958 q 150 494 150 689 q 282 167 150 301 q 607 32 414 32 q 932 167 799 32 q 1065 494 1065 301 m 775 1247 q 671 1167 742 1167 q 650 1169 661 1167 q 633 1172 639 1171 l 579 1190 q 533 1197 560 1197 q 458 1156 486 1197 l 442 1156 q 546 1232 469 1232 l 579 1228 l 632 1210 q 681 1201 657 1201 q 760 1247 735 1201 l 775 1247 z "},"Ö":{"ha":1171,"x_min":99,"x_max":1117,"o":"m 1117 494 q 967 141 1117 286 q 607 -4 818 -4 q 412 33 504 -4 q 247 142 319 71 q 99 494 99 288 q 246 849 99 706 q 607 993 393 993 q 968 850 822 993 q 1079 688 1042 779 q 1117 494 1117 597 m 1065 494 q 932 824 1065 689 q 607 958 799 958 q 283 824 417 958 q 150 494 150 689 q 282 167 150 301 q 607 32 414 32 q 932 167 799 32 q 1065 494 1065 301 m 771 1197 q 728 1154 771 1154 q 696 1165 708 1154 q 683 1197 683 1176 q 697 1228 683 1215 q 728 1242 710 1242 q 758 1229 746 1242 q 771 1197 771 1217 m 533 1197 q 489 1154 533 1154 q 446 1197 446 1154 q 458 1228 446 1214 q 489 1242 471 1242 q 520 1228 507 1242 q 533 1197 533 1215 z "},"×":{"ha":1113,"x_min":214,"x_max":942,"o":"m 244 778 l 578 444 l 911 778 l 942 747 l 608 414 l 942 81 l 911 50 l 578 383 l 244 50 l 214 81 l 547 414 l 214 747 l 244 778 z "},"Ø":{"ha":1171,"x_min":99,"x_max":1117,"o":"m 1117 496 q 1069 283 1117 382 q 931 111 1022 185 q 600 0 792 0 q 428 28 506 0 q 268 125 351 57 l 149 1 l 135 17 l 256 140 q 138 305 178 214 q 99 496 99 396 q 247 849 99 704 q 412 957 321 919 q 607 994 503 994 q 794 962 707 994 q 957 860 881 929 l 1082 990 l 1097 975 l 971 846 q 1080 678 1043 768 q 1117 496 1117 588 m 1065 496 q 1038 653 1065 581 q 943 817 1010 726 l 300 156 q 454 63 383 90 q 607 35 525 35 q 931 169 797 35 q 1065 496 1065 303 m 926 831 q 774 928 850 899 q 607 958 697 958 q 284 824 417 958 q 151 496 151 690 q 181 333 151 406 q 285 169 210 260 l 926 831 z "},"Ù":{"ha":917,"x_min":142,"x_max":819,"o":"m 819 374 q 735 90 819 183 q 481 -4 651 -4 q 142 374 142 -4 l 142 971 l 188 971 l 188 344 q 259 109 188 186 q 481 32 331 32 q 774 344 774 32 l 774 971 l 819 971 l 819 374 m 531 1113 l 517 1113 l 361 1306 l 414 1306 l 531 1113 z "},"Ú":{"ha":917,"x_min":142,"x_max":819,"o":"m 819 374 q 735 90 819 183 q 481 -4 651 -4 q 142 374 142 -4 l 142 971 l 188 971 l 188 344 q 259 109 188 186 q 481 32 331 32 q 774 344 774 32 l 774 971 l 819 971 l 819 374 m 600 1306 l 444 1113 l 431 1113 l 547 1306 l 600 1306 z "},"Û":{"ha":917,"x_min":142,"x_max":819,"o":"m 819 374 q 735 90 819 183 q 481 -4 651 -4 q 142 374 142 -4 l 142 971 l 188 971 l 188 344 q 259 109 188 186 q 481 32 331 32 q 774 344 774 32 l 774 971 l 819 971 l 819 374 m 633 1113 l 622 1113 l 482 1297 l 338 1113 l 326 1113 l 443 1306 l 517 1306 l 633 1113 z "},"Ü":{"ha":917,"x_min":142,"x_max":819,"o":"m 819 374 q 735 90 819 183 q 481 -4 651 -4 q 142 374 142 -4 l 142 971 l 188 971 l 188 344 q 259 109 188 186 q 481 32 331 32 q 774 344 774 32 l 774 971 l 819 971 l 819 374 m 643 1197 q 600 1154 643 1154 q 568 1165 581 1154 q 556 1197 556 1176 q 569 1228 556 1215 q 600 1242 582 1242 q 631 1229 618 1242 q 643 1197 643 1217 m 406 1197 q 361 1154 406 1154 q 318 1197 318 1154 q 331 1228 318 1214 q 361 1242 343 1242 q 392 1228 379 1242 q 406 1197 406 1215 z "},"Ý":{"ha":714,"x_min":47,"x_max":713,"o":"m 713 971 l 404 464 l 404 22 l 358 22 l 358 464 l 47 971 l 103 971 l 382 494 l 663 971 l 713 971 m 499 1306 l 343 1113 l 329 1113 l 446 1306 l 499 1306 z "},"Þ":{"ha":650,"x_min":146,"x_max":626,"o":"m 626 517 q 550 324 626 383 q 318 264 474 264 l 192 264 l 192 22 l 146 22 l 146 971 l 192 971 l 192 768 l 304 768 q 458 757 414 768 q 538 721 501 746 q 603 637 579 690 q 626 517 626 583 m 575 508 q 500 688 575 626 q 414 723 468 714 q 275 732 360 732 l 192 732 l 192 299 l 275 299 q 497 335 435 299 q 575 508 575 379 z "},"ß":{"ha":674,"x_min":44,"x_max":629,"o":"m 629 293 q 558 73 629 154 q 363 -8 488 -8 q 301 3 335 -8 l 301 42 q 368 32 331 32 q 528 99 471 32 q 586 294 586 167 q 524 496 586 426 q 344 565 461 565 l 317 564 l 317 601 l 328 601 q 525 807 525 601 q 339 1011 525 1011 q 193 933 239 1011 q 172 863 178 906 q 165 761 165 819 l 165 22 l 126 22 l 126 553 l 44 553 l 44 579 l 126 579 l 126 803 q 184 981 126 919 q 346 1043 242 1043 q 508 978 449 1043 q 567 801 567 914 q 433 607 567 658 l 439 564 q 581 485 532 554 q 629 293 629 415 z "},"à":{"ha":707,"x_min":79,"x_max":617,"o":"m 617 22 l 578 22 l 578 174 l 540 115 q 456 28 496 54 q 344 -4 407 -4 q 151 78 224 -4 q 79 297 79 160 q 151 517 79 432 q 336 601 224 601 q 547 482 485 601 l 581 433 l 578 579 l 617 579 l 617 22 m 579 310 q 519 501 579 432 q 354 569 458 569 q 190 497 253 569 q 128 294 128 424 q 186 97 128 165 q 353 29 244 29 q 517 103 454 29 q 579 310 579 176 m 426 721 l 413 721 l 257 914 l 310 914 l 426 721 z "},"á":{"ha":707,"x_min":79,"x_max":617,"o":"m 617 22 l 578 22 l 578 174 l 540 115 q 456 28 496 54 q 344 -4 407 -4 q 151 78 224 -4 q 79 297 79 160 q 151 517 79 432 q 336 601 224 601 q 547 482 485 601 l 581 433 l 578 579 l 617 579 l 617 22 m 579 310 q 519 501 579 432 q 354 569 458 569 q 190 497 253 569 q 128 294 128 424 q 186 97 128 165 q 353 29 244 29 q 517 103 454 29 q 579 310 579 176 m 496 914 l 340 721 l 326 721 l 443 914 l 496 914 z "},"â":{"ha":707,"x_min":79,"x_max":617,"o":"m 617 22 l 578 22 l 578 174 l 540 115 q 456 28 496 54 q 344 -4 407 -4 q 151 78 224 -4 q 79 297 79 160 q 151 517 79 432 q 336 601 224 601 q 547 482 485 601 l 581 433 l 578 579 l 617 579 l 617 22 m 579 310 q 519 501 579 432 q 354 569 458 569 q 190 497 253 569 q 128 294 128 424 q 186 97 128 165 q 353 29 244 29 q 517 103 454 29 q 579 310 579 176 m 529 721 l 518 721 l 378 906 l 233 721 l 222 721 l 339 914 l 413 914 l 529 721 z "},"ã":{"ha":707,"x_min":79,"x_max":617,"o":"m 617 22 l 578 22 l 578 174 l 540 115 q 456 28 496 54 q 344 -4 407 -4 q 151 78 224 -4 q 79 297 79 160 q 151 517 79 432 q 336 601 224 601 q 547 482 485 601 l 581 433 l 578 579 l 617 579 l 617 22 m 579 310 q 519 501 579 432 q 354 569 458 569 q 190 497 253 569 q 128 294 128 424 q 186 97 128 165 q 353 29 244 29 q 517 103 454 29 q 579 310 579 176 m 543 856 q 439 775 510 775 q 418 777 429 775 q 401 781 407 779 l 347 799 q 301 806 328 806 q 226 764 254 806 l 210 764 q 314 840 238 840 l 347 836 l 400 818 q 449 810 425 810 q 528 856 503 810 l 543 856 z "},"ä":{"ha":707,"x_min":79,"x_max":617,"o":"m 617 22 l 578 22 l 578 174 l 540 115 q 456 28 496 54 q 344 -4 407 -4 q 151 78 224 -4 q 79 297 79 160 q 151 517 79 432 q 336 601 224 601 q 547 482 485 601 l 581 433 l 578 579 l 617 579 l 617 22 m 579 310 q 519 501 579 432 q 354 569 458 569 q 190 497 253 569 q 128 294 128 424 q 186 97 128 165 q 353 29 244 29 q 517 103 454 29 q 579 310 579 176 m 539 806 q 496 763 539 763 q 464 774 476 763 q 451 806 451 785 q 465 837 451 824 q 496 850 478 850 q 526 838 514 850 q 539 806 539 825 m 301 806 q 257 763 301 763 q 214 806 214 763 q 226 836 214 822 q 257 850 239 850 q 288 837 275 850 q 301 806 301 824 z "},"å":{"ha":707,"x_min":79,"x_max":617,"o":"m 494 828 q 454 731 494 771 q 357 690 414 690 q 260 731 300 690 q 219 828 219 771 q 260 925 219 885 q 357 965 300 965 q 455 926 415 965 q 494 828 494 886 m 617 22 l 578 22 l 578 110 l 535 118 q 460 28 510 60 q 344 -4 410 -4 q 151 78 224 -4 q 79 297 79 160 q 151 517 79 432 q 336 601 224 601 q 536 482 478 601 l 578 492 l 578 579 l 617 579 l 617 22 m 469 828 q 437 909 469 876 q 357 942 404 942 q 278 908 311 942 q 244 828 244 875 q 277 748 244 781 q 357 715 310 715 q 437 748 404 715 q 469 828 469 781 m 579 310 q 519 501 579 432 q 354 569 458 569 q 190 497 253 569 q 128 294 128 424 q 186 97 128 165 q 353 29 244 29 q 517 103 454 29 q 579 310 579 176 z "},"æ":{"ha":1057,"x_min":71,"x_max":1018,"o":"m 1018 314 l 1018 319 l 539 319 q 601 103 539 179 q 763 28 664 28 q 976 163 906 28 l 1015 143 q 764 -6 928 -6 q 627 35 683 -6 q 514 178 571 75 q 435 37 493 79 q 276 -6 376 -6 q 126 42 182 -6 q 71 167 71 89 q 131 298 71 247 q 294 349 192 349 q 397 331 351 349 q 501 264 443 314 l 507 356 q 297 574 507 574 q 206 564 249 574 q 115 533 163 554 l 117 572 q 304 603 217 603 q 449 566 393 603 q 531 440 506 529 q 632 563 575 525 q 760 600 689 600 q 948 523 878 600 q 1018 314 1018 446 m 965 346 q 908 509 965 453 q 754 565 850 565 q 612 508 671 565 q 543 346 553 450 l 965 346 m 499 183 q 448 281 499 243 q 308 319 397 319 q 167 278 217 319 q 118 169 118 238 q 165 65 118 103 q 299 26 213 26 q 444 72 389 26 q 499 183 499 118 z "},"ç":{"ha":589,"x_min":85,"x_max":568,"o":"m 568 35 q 376 -7 485 -7 q 167 78 249 -7 q 85 293 85 163 q 170 516 85 431 q 393 601 256 601 q 558 569 490 601 l 557 531 q 392 572 479 572 q 197 495 268 572 q 125 288 125 418 q 199 98 125 174 q 392 22 274 22 q 568 72 482 22 l 568 35 m 532 -171 q 390 -278 532 -278 q 231 -254 325 -278 l 231 -215 q 310 -228 263 -221 q 379 -236 358 -236 q 468 -172 468 -236 q 371 -107 468 -107 l 344 -108 l 344 -4 l 378 -4 l 378 -72 l 392 -72 q 495 -99 458 -72 q 532 -171 532 -125 z "},"è":{"ha":646,"x_min":82,"x_max":606,"o":"m 606 319 l 128 321 q 190 103 128 179 q 356 26 253 26 q 564 163 492 26 l 603 142 q 356 -4 519 -4 q 157 78 232 -4 q 82 294 82 161 q 157 518 82 435 q 353 601 232 601 q 536 525 467 601 q 606 319 606 449 m 553 347 q 496 510 553 454 q 342 565 439 565 q 199 508 258 565 q 131 347 140 450 l 553 347 m 396 721 l 382 721 l 226 914 l 279 914 l 396 721 z "},"é":{"ha":646,"x_min":82,"x_max":606,"o":"m 606 319 l 128 321 q 190 103 128 179 q 356 26 253 26 q 564 163 492 26 l 603 142 q 356 -4 519 -4 q 157 78 232 -4 q 82 294 82 161 q 157 518 82 435 q 353 601 232 601 q 536 525 467 601 q 606 319 606 449 m 553 347 q 496 510 553 454 q 342 565 439 565 q 199 508 258 565 q 131 347 140 450 l 553 347 m 465 914 l 310 721 l 296 721 l 413 914 l 465 914 z "},"ê":{"ha":646,"x_min":82,"x_max":606,"o":"m 606 319 l 128 321 q 190 103 128 179 q 356 26 253 26 q 564 163 492 26 l 603 142 q 356 -4 519 -4 q 157 78 232 -4 q 82 294 82 161 q 157 518 82 435 q 353 601 232 601 q 536 525 467 601 q 606 319 606 449 m 553 347 q 496 510 553 454 q 342 565 439 565 q 199 508 258 565 q 131 347 140 450 l 553 347 m 499 721 l 488 721 l 347 906 l 203 721 l 192 721 l 308 914 l 382 914 l 499 721 z "},"ë":{"ha":646,"x_min":82,"x_max":606,"o":"m 606 319 l 128 321 q 190 103 128 179 q 356 26 253 26 q 564 163 492 26 l 603 142 q 356 -4 519 -4 q 157 78 232 -4 q 82 294 82 161 q 157 518 82 435 q 353 601 232 601 q 536 525 467 601 q 606 319 606 449 m 553 347 q 496 510 553 454 q 342 565 439 565 q 199 508 258 565 q 131 347 140 450 l 553 347 m 508 806 q 465 763 508 763 q 433 774 446 763 q 421 806 421 785 q 434 837 421 824 q 465 850 447 850 q 496 838 483 850 q 508 806 508 825 m 271 806 q 226 763 271 763 q 183 806 183 763 q 196 836 183 822 q 226 850 208 850 q 258 837 244 850 q 271 806 271 824 z "},"ì":{"ha":275,"x_min":40,"x_max":210,"o":"m 179 22 l 140 22 l 140 579 l 179 579 l 179 22 m 210 721 l 196 721 l 40 914 l 93 914 l 210 721 z "},"í":{"ha":275,"x_min":110,"x_max":279,"o":"m 179 22 l 140 22 l 140 579 l 179 579 l 179 22 m 279 914 l 124 721 l 110 721 l 226 914 l 279 914 z "},"î":{"ha":275,"x_min":6,"x_max":313,"o":"m 179 22 l 140 22 l 140 579 l 179 579 l 179 22 m 313 721 l 301 721 l 161 906 l 17 721 l 6 721 l 122 914 l 196 914 l 313 721 z "},"ï":{"ha":275,"x_min":-3,"x_max":322,"o":"m 179 22 l 140 22 l 140 579 l 179 579 l 179 22 m 322 806 q 279 763 322 763 q 247 774 260 763 q 235 806 235 785 q 248 837 235 824 q 279 850 261 850 q 310 838 297 850 q 322 806 322 825 m 85 806 q 40 763 85 763 q -3 806 -3 763 q 10 836 -3 822 q 40 850 22 850 q 72 837 58 850 q 85 806 85 824 z "},"ð":{"ha":728,"x_min":79,"x_max":692,"o":"m 692 336 q 607 88 692 179 q 385 -4 522 -4 q 169 81 258 -4 q 79 288 79 165 q 168 493 79 407 q 372 579 257 579 q 494 549 435 579 q 644 439 554 518 q 550 675 610 576 q 390 864 490 774 l 182 767 l 172 783 l 372 879 q 271 950 326 913 q 196 997 225 981 l 211 1021 q 306 961 250 997 q 403 892 361 925 l 628 997 l 640 976 l 428 875 q 627 607 563 739 q 692 336 692 475 m 643 290 q 568 475 643 399 q 385 551 493 551 q 201 476 275 551 q 126 290 126 400 q 201 106 126 182 q 385 29 276 29 q 567 105 492 29 q 643 290 643 181 z "},"ñ":{"ha":679,"x_min":133,"x_max":597,"o":"m 597 22 l 558 22 l 558 371 q 381 571 558 571 q 172 314 172 571 l 172 22 l 133 22 l 133 579 l 168 579 l 168 433 q 274 572 204 532 q 403 601 325 601 q 546 551 494 601 q 597 408 597 501 l 597 22 m 529 856 q 425 775 496 775 q 404 777 415 775 q 388 781 393 779 l 333 799 q 288 806 314 806 q 213 764 240 806 l 196 764 q 300 840 224 840 l 333 836 l 386 818 q 435 810 411 810 q 514 856 489 810 l 529 856 z "},"ò":{"ha":731,"x_min":83,"x_max":692,"o":"m 692 300 q 601 85 692 174 q 385 -4 511 -4 q 172 84 260 -4 q 83 300 83 172 q 171 514 83 426 q 385 601 258 601 q 603 514 514 601 q 692 300 692 426 m 646 299 q 571 490 646 413 q 388 568 496 568 q 203 491 278 568 q 129 299 129 414 q 204 107 129 185 q 388 29 279 29 q 570 106 494 29 q 646 299 646 183 m 438 721 l 424 721 l 268 914 l 321 914 l 438 721 z "},"ó":{"ha":731,"x_min":83,"x_max":692,"o":"m 692 300 q 601 85 692 174 q 385 -4 511 -4 q 172 84 260 -4 q 83 300 83 172 q 171 514 83 426 q 385 601 258 601 q 603 514 514 601 q 692 300 692 426 m 646 299 q 571 490 646 413 q 388 568 496 568 q 203 491 278 568 q 129 299 129 414 q 204 107 129 185 q 388 29 279 29 q 570 106 494 29 q 646 299 646 183 m 507 914 l 351 721 l 338 721 l 454 914 l 507 914 z "},"ô":{"ha":731,"x_min":83,"x_max":692,"o":"m 692 300 q 601 85 692 174 q 385 -4 511 -4 q 172 84 260 -4 q 83 300 83 172 q 171 514 83 426 q 385 601 258 601 q 603 514 514 601 q 692 300 692 426 m 646 299 q 571 490 646 413 q 388 568 496 568 q 203 491 278 568 q 129 299 129 414 q 204 107 129 185 q 388 29 279 29 q 570 106 494 29 q 646 299 646 183 m 540 721 l 529 721 l 389 906 l 244 721 l 233 721 l 350 914 l 424 914 l 540 721 z "},"õ":{"ha":731,"x_min":83,"x_max":692,"o":"m 692 300 q 601 85 692 174 q 385 -4 511 -4 q 172 84 260 -4 q 83 300 83 172 q 171 514 83 426 q 385 601 258 601 q 603 514 514 601 q 692 300 692 426 m 646 299 q 571 490 646 413 q 388 568 496 568 q 203 491 278 568 q 129 299 129 414 q 204 107 129 185 q 388 29 279 29 q 570 106 494 29 q 646 299 646 183 m 554 856 q 450 775 521 775 q 429 777 440 775 q 413 781 418 779 l 358 799 q 313 806 339 806 q 238 764 265 806 l 221 764 q 325 840 249 840 l 358 836 l 411 818 q 460 810 436 810 q 539 856 514 810 l 554 856 z "},"ö":{"ha":731,"x_min":83,"x_max":692,"o":"m 692 300 q 601 85 692 174 q 385 -4 511 -4 q 172 84 260 -4 q 83 300 83 172 q 171 514 83 426 q 385 601 258 601 q 603 514 514 601 q 692 300 692 426 m 646 299 q 571 490 646 413 q 388 568 496 568 q 203 491 278 568 q 129 299 129 414 q 204 107 129 185 q 388 29 279 29 q 570 106 494 29 q 646 299 646 183 m 550 806 q 507 763 550 763 q 475 774 488 763 q 463 806 463 785 q 476 837 463 824 q 507 850 489 850 q 538 838 525 850 q 550 806 550 825 m 313 806 q 268 763 313 763 q 225 806 225 763 q 238 836 225 822 q 268 850 250 850 q 299 837 286 850 q 313 806 313 824 z "},"÷":{"ha":1113,"x_min":176,"x_max":981,"o":"m 981 397 l 176 397 l 176 431 l 981 431 l 981 397 m 624 649 q 611 617 624 631 q 579 603 599 603 q 547 615 560 603 q 535 649 535 628 q 547 681 535 668 q 579 693 560 693 q 624 649 624 693 m 624 181 q 579 136 624 136 q 535 181 535 136 q 547 213 535 199 q 579 226 560 226 q 611 213 599 226 q 624 181 624 199 z "},"ø":{"ha":731,"x_min":82,"x_max":692,"o":"m 692 301 q 601 83 692 169 q 379 -4 510 -4 q 279 14 324 -4 q 179 79 235 32 l 101 4 l 93 13 l 167 88 q 101 192 121 144 q 82 293 82 239 q 169 513 82 424 q 390 601 257 601 q 492 583 446 601 q 596 519 538 565 l 669 594 l 679 585 l 606 513 q 671 404 650 456 q 692 301 692 353 m 571 493 q 483 551 524 533 q 394 568 442 568 q 203 492 278 568 q 129 294 129 417 q 143 210 129 249 q 196 117 157 172 l 571 493 m 644 301 q 632 386 644 349 q 581 485 619 424 l 201 106 q 295 47 256 64 q 382 31 335 31 q 569 107 494 31 q 644 301 644 183 z "},"ù":{"ha":688,"x_min":133,"x_max":599,"o":"m 599 258 q 367 -4 599 -4 q 133 258 133 -4 l 133 579 l 172 579 l 172 301 q 215 93 172 157 q 365 29 257 29 q 517 93 474 29 q 560 301 560 157 l 560 579 l 599 579 l 599 258 m 417 721 l 403 721 l 247 914 l 300 914 l 417 721 z "},"ú":{"ha":688,"x_min":133,"x_max":599,"o":"m 599 258 q 367 -4 599 -4 q 133 258 133 -4 l 133 579 l 172 579 l 172 301 q 215 93 172 157 q 365 29 257 29 q 517 93 474 29 q 560 301 560 157 l 560 579 l 599 579 l 599 258 m 486 914 l 331 721 l 317 721 l 433 914 l 486 914 z "},"û":{"ha":688,"x_min":133,"x_max":599,"o":"m 599 258 q 367 -4 599 -4 q 133 258 133 -4 l 133 579 l 172 579 l 172 301 q 215 93 172 157 q 365 29 257 29 q 517 93 474 29 q 560 301 560 157 l 560 579 l 599 579 l 599 258 m 519 721 l 508 721 l 368 906 l 224 721 l 213 721 l 329 914 l 403 914 l 519 721 z "},"ü":{"ha":688,"x_min":133,"x_max":599,"o":"m 599 258 q 367 -4 599 -4 q 133 258 133 -4 l 133 579 l 172 579 l 172 301 q 215 93 172 157 q 365 29 257 29 q 517 93 474 29 q 560 301 560 157 l 560 579 l 599 579 l 599 258 m 529 806 q 486 763 529 763 q 454 774 467 763 q 442 806 442 785 q 455 837 442 824 q 486 850 468 850 q 517 838 504 850 q 529 806 529 825 m 292 806 q 247 763 292 763 q 204 806 204 763 q 217 836 204 822 q 247 850 229 850 q 278 837 265 850 q 292 806 292 824 z "},"ý":{"ha":515,"x_min":61,"x_max":507,"o":"m 507 579 l 211 -281 l 171 -281 l 269 6 l 61 579 l 103 579 l 292 65 l 464 579 l 507 579 m 400 914 l 244 721 l 231 721 l 347 914 l 400 914 z "},"þ":{"ha":707,"x_min":133,"x_max":667,"o":"m 667 299 q 597 77 667 158 q 411 -4 526 -4 q 211 121 275 -4 l 169 111 l 169 -281 l 133 -281 l 133 1029 l 169 1029 l 169 489 l 213 481 q 288 569 236 538 q 407 601 340 601 q 596 518 525 601 q 667 299 667 435 m 621 297 q 561 497 621 425 q 399 569 501 569 q 233 501 294 569 q 171 304 171 432 q 238 102 171 175 q 407 29 304 29 q 563 99 506 29 q 621 297 621 169 z "},"ÿ":{"ha":515,"x_min":61,"x_max":507,"o":"m 507 579 l 211 -281 l 171 -281 l 269 6 l 61 579 l 103 579 l 292 65 l 464 579 l 507 579 m 443 806 q 400 763 443 763 q 368 774 381 763 q 356 806 356 785 q 369 837 356 824 q 400 850 382 850 q 431 838 418 850 q 443 806 443 825 m 206 806 q 161 763 206 763 q 118 806 118 763 q 131 836 118 822 q 161 850 143 850 q 192 837 179 850 q 206 806 206 824 z "},"˘":{"ha":650,"x_min":188,"x_max":507,"o":"m 507 849 q 347 731 483 731 q 188 849 211 731 l 197 849 q 347 761 221 761 q 496 849 474 761 l 507 849 z "},"˙":{"ha":650,"x_min":300,"x_max":394,"o":"m 394 806 q 381 772 394 786 q 347 758 367 758 q 314 772 328 758 q 300 806 300 786 q 314 839 300 824 q 347 854 328 854 q 381 840 367 854 q 394 806 394 826 z "},"ı":{"ha":275,"x_min":140,"x_max":179,"o":"m 179 22 l 140 22 l 140 579 l 179 579 l 179 22 z "},"˚":{"ha":650,"x_min":201,"x_max":493,"o":"m 493 854 q 451 750 493 792 q 347 708 410 708 q 243 750 285 708 q 201 854 201 792 q 244 958 201 915 q 347 1000 286 1000 q 451 958 410 1000 q 493 854 493 917 m 467 854 q 432 938 467 903 q 347 972 397 972 q 263 938 297 972 q 229 854 229 904 q 263 769 229 804 q 347 735 296 735 q 432 769 397 735 q 467 854 467 804 z "},"˛":{"ha":650,"x_min":221,"x_max":408,"o":"m 408 -286 l 363 -286 q 221 -183 221 -286 q 253 -94 221 -136 q 343 -8 278 -61 l 368 -8 q 283 -160 283 -89 q 360 -226 283 -226 l 408 -226 l 408 -286 z "},"ˇ":{"ha":650,"x_min":193,"x_max":500,"o":"m 500 914 l 383 721 l 310 721 l 193 914 l 204 914 l 349 731 l 489 914 l 500 914 z "},"Ł":{"ha":536,"x_min":-14,"x_max":539,"o":"m 539 22 l 153 22 l 153 497 l 3 393 l -14 414 l 153 532 l 153 971 l 199 971 l 199 550 l 376 674 l 393 650 l 199 515 l 199 63 l 539 63 l 539 22 z "},"ł":{"ha":294,"x_min":17,"x_max":322,"o":"m 322 586 l 190 492 l 190 22 l 151 22 l 151 474 l 31 388 l 17 407 l 151 501 l 151 1029 l 190 1029 l 190 521 l 310 606 l 322 586 z "},"∕":{"ha":188,"x_min":-192,"x_max":424,"o":"m 424 981 l -171 -4 l -192 -4 l 403 981 l 424 981 z "},"":{"ha":611,"x_min":40,"x_max":538,"o":"m 538 836 q 526 807 538 819 q 496 794 515 794 q 466 806 478 794 q 454 836 454 818 q 466 866 454 854 q 496 878 478 878 q 525 867 513 878 q 538 836 538 856 m 515 22 l 476 22 l 476 579 l 515 579 l 515 22 m 343 1035 l 338 1007 q 294 1015 314 1015 q 215 972 238 1015 q 192 829 192 929 l 192 579 l 324 579 l 324 553 l 192 553 l 192 22 l 153 22 l 153 553 l 40 553 l 40 579 l 153 579 l 153 775 q 160 935 153 896 q 289 1042 179 1042 q 308 1041 299 1042 q 343 1035 317 1040 z "},"":{"ha":618,"x_min":40,"x_max":522,"o":"m 522 22 l 483 22 l 483 1029 l 522 1029 l 522 22 m 343 1035 l 338 1007 q 294 1015 314 1015 q 215 972 238 1015 q 192 829 192 929 l 192 579 l 324 579 l 324 553 l 192 553 l 192 22 l 153 22 l 153 553 l 40 553 l 40 579 l 153 579 l 153 775 q 160 935 153 896 q 289 1042 179 1042 q 308 1041 299 1042 q 343 1035 317 1040 z "},"Ž":{"ha":733,"x_min":57,"x_max":721,"o":"m 721 971 l 133 61 l 679 61 l 679 22 l 57 22 l 647 933 l 125 933 l 125 971 l 721 971 m 542 1306 l 425 1113 l 351 1113 l 235 1306 l 246 1306 l 390 1122 l 531 1306 l 542 1306 z "},"ž":{"ha":485,"x_min":56,"x_max":483,"o":"m 483 22 l 56 22 l 392 549 l 61 549 l 61 579 l 454 579 l 121 51 l 483 51 l 483 22 m 418 914 l 301 721 l 228 721 l 111 914 l 122 914 l 267 731 l 407 914 l 418 914 z "}}}
